<svg width="45" height="26" viewBox="0 0 45 26" fill="none" xmlns="http://www.w3.org/2000/svg">
<path d="M22.3042 26C28.6694 26 26.3998 22.1901 26.8911 21.0947C26.8838 20.2765 26.8764 19.4896 26.9058 19.0112C27.3091 19.1187 28.2606 19.5745 30.2259 21.3807C33.26 24.2753 34.0355 26 36.4867 26H40.9985C42.4284 26 43.1728 25.4401 43.5449 24.9704C43.9043 24.5163 44.2563 23.7189 43.8713 22.4779C42.8648 19.4896 36.9945 14.3295 36.6297 13.7852C36.6847 13.6847 36.7727 13.5512 36.8185 13.4819H36.8148C37.9735 12.0345 42.3954 5.77027 43.0463 3.26387C43.0481 3.2604 43.0499 3.2552 43.0499 3.25C43.4019 2.106 43.0793 1.36413 42.7456 0.944667C42.2433 0.3172 41.444 0 40.3641 0H35.8523C34.3417 0 33.1959 0.719333 32.6166 2.03147C31.6467 4.3628 28.9224 9.1572 26.8801 10.8541C26.8178 8.45 26.8599 6.6144 26.8929 5.25027C26.9589 2.5896 27.1716 0 24.2511 0H17.1599C15.3302 0 13.5794 1.88933 15.4751 4.13227C17.1324 6.09787 16.0709 7.19333 16.4284 12.6464C15.0351 11.2337 12.5564 7.41867 10.8038 2.5428C10.3125 1.22373 9.56814 0.00173321 7.47266 0.00173321H2.96088C1.13123 0.00173321 0.0385742 0.944666 0.0385742 2.52373C0.0385742 6.07013 8.34165 26 22.3042 26ZM7.47266 2.60173C7.87049 2.60173 7.91082 2.60173 8.20598 3.39387C10.0008 8.39107 14.0268 15.7855 16.9674 15.7855C19.1765 15.7855 19.1765 13.6448 19.1765 12.8388L19.1747 6.422C19.0537 4.29867 18.236 3.24133 17.6989 2.6L24.1301 2.60693C24.1338 2.6364 24.0935 9.70493 24.1485 11.4175C24.1485 13.8493 26.1908 15.2429 29.3789 12.1923C32.743 8.60253 35.0695 3.23613 35.163 3.01773C35.3005 2.70573 35.4197 2.6 35.8523 2.6H40.3641H40.3825C40.3806 2.6052 40.3806 2.6104 40.3788 2.6156C39.9663 4.4356 35.8945 10.2353 34.5324 12.0363C34.5104 12.064 34.4902 12.0935 34.47 12.1229C33.8705 13.0485 33.3829 14.0712 34.5525 15.5099H34.5544C34.6607 15.6312 34.9375 15.9155 35.3409 16.3107C36.5948 17.5344 40.8958 21.7187 41.2771 23.3827C41.0241 23.4208 40.7491 23.3931 36.4867 23.4017C35.5792 23.4017 34.8697 22.1191 32.1619 19.5364C29.7272 17.2969 28.1469 16.3817 26.7078 16.3817C23.9138 16.3817 24.1173 18.5259 24.143 21.1189C24.1521 23.9304 24.1338 23.0412 24.154 23.218C23.9908 23.2787 23.5233 23.4 22.3042 23.4C10.6718 23.4 3.09654 5.9436 2.80504 2.60693C2.90588 2.59827 4.29369 2.60347 7.47266 2.60173Z" fill="#62BAAF"/>
</svg>
