<svg width="36" height="35" viewBox="0 0 36 35" fill="none" xmlns="http://www.w3.org/2000/svg">
<path d="M0 10.6509C0.117598 9.82043 0.207196 8.98519 0.356671 8.16071C1.20398 3.49082 4.51008 0.313516 9.23726 0.150688C14.9289 -0.0448776 20.6378 -0.0552159 26.3286 0.149827C31.4736 0.335055 35.1997 4.14471 35.3604 9.29146C35.5314 14.7565 35.5314 20.235 35.3604 25.7C35.1997 30.8468 31.4749 34.656 26.329 34.8417C20.6382 35.0471 14.9281 35.0523 9.23769 34.8387C4.09181 34.6452 0.534576 30.827 0.190397 25.6725C0.160674 25.2266 0.0650451 24.7847 0 24.341C0 19.7775 0 15.214 0 10.6509ZM17.7491 31.7914C20.3535 31.7914 22.9605 31.8694 25.5614 31.7734C29.6394 31.6222 32.1478 29.1884 32.243 25.1142C32.361 20.0377 32.361 14.9543 32.243 9.87729C32.1478 5.80401 29.6377 3.31334 25.5614 3.22676C20.3875 3.11735 15.208 3.11821 10.0342 3.22676C5.98888 3.31162 3.47323 5.75189 3.36339 9.78037C3.22382 14.9211 3.22382 20.0708 3.36339 25.2116C3.47323 29.2396 5.98888 31.6235 10.0346 31.7734C12.6028 31.869 15.1775 31.7914 17.7491 31.7914Z" fill="#62BAAF"/>
<path d="M17.7446 8.45654C12.7503 8.45654 8.70117 12.5053 8.70117 17.4995C8.70117 22.4942 12.7503 26.5429 17.7446 26.5429C22.7393 26.5429 26.788 22.4942 26.788 17.4995C26.788 12.5053 22.7393 8.45654 17.7446 8.45654ZM17.7446 23.4294C14.4695 23.4294 11.8147 20.7746 11.8147 17.4995C11.8147 14.2244 14.4695 11.5697 17.7446 11.5697C21.0197 11.5697 23.6745 14.2244 23.6745 17.4995C23.6745 20.7746 21.0197 23.4294 17.7446 23.4294Z" fill="#62BAAF"/>
<path d="M29.4674 8.04326C29.4674 9.2313 28.5042 10.1945 27.3162 10.1945C26.1282 10.1945 25.1646 9.2313 25.1646 8.04326C25.1646 6.85479 26.1282 5.8916 27.3162 5.8916C28.5042 5.8916 29.4674 6.85479 29.4674 8.04326Z" fill="#62BAAF"/>
</svg>
