<svg width="33" height="32" viewBox="0 0 33 32" fill="none" xmlns="http://www.w3.org/2000/svg">
<path fill-rule="evenodd" clip-rule="evenodd" d="M27.3762 4.65039C24.3681 1.65313 20.3675 0.00175781 16.1055 0C7.32324 0 0.175754 7.11309 0.172222 15.8557C0.171044 18.6504 0.904633 21.3785 2.299 23.7832L0.0385742 32L8.48505 29.7949C10.8124 31.0584 13.4325 31.7242 16.099 31.725H16.1057C24.887 31.725 32.0352 24.6113 32.0386 15.8684C32.0403 11.6313 30.3846 7.64746 27.3762 4.65039ZM16.1055 29.0471H16.1C13.7238 29.0461 11.3933 28.4105 9.35974 27.21L8.87637 26.9242L3.86411 28.2328L5.20195 23.3693L4.88697 22.8707C3.56129 20.7723 2.86126 18.3469 2.86244 15.8566C2.86519 8.59004 8.80611 2.67813 16.1108 2.67813C19.648 2.6793 22.9731 4.05195 25.4734 6.54316C27.9736 9.03438 29.3497 12.3457 29.3486 15.8674C29.3454 23.1346 23.4049 29.0471 16.1055 29.0471ZM23.3696 19.1762C22.9716 18.9777 21.0141 18.0195 20.6491 17.8871C20.2845 17.7549 20.0188 17.6891 19.7536 18.0855C19.4881 18.482 18.7253 19.3746 18.4929 19.6389C18.2605 19.9033 18.0286 19.9365 17.6304 19.7381C17.2322 19.5398 15.9495 19.1213 14.4287 17.7715C13.2453 16.7209 12.4464 15.4234 12.214 15.027C11.9821 14.6301 12.2121 14.4363 12.3887 14.2184C12.8197 13.6857 13.2512 13.1273 13.3839 12.8631C13.5167 12.5986 13.4502 12.3672 13.3505 12.1689C13.2512 11.9707 12.455 10.0205 12.1234 9.22695C11.7999 8.45469 11.472 8.55898 11.2275 8.54688C10.9955 8.53535 10.73 8.53301 10.4644 8.53301C10.1991 8.53301 9.76775 8.63203 9.40272 9.02891C9.03789 9.42559 8.00953 10.384 8.00953 12.3342C8.00953 14.2844 9.43608 16.1684 9.63508 16.4328C9.83408 16.6973 12.4425 20.6992 16.436 22.4152C17.3858 22.8238 18.1273 23.0674 18.7056 23.25C19.6594 23.5516 20.527 23.509 21.2131 23.407C21.9781 23.2932 23.5684 22.4484 23.9004 21.523C24.2321 20.5975 24.2321 19.8043 24.1324 19.6389C24.0331 19.4736 23.7676 19.3746 23.3696 19.1762Z" fill="#62BAAF"/>
</svg>
