<svg width="42" height="35" viewBox="0 0 42 35" fill="none" xmlns="http://www.w3.org/2000/svg">
<path d="M40.4054 0.958212C39.9046 0.340235 39.1545 0 38.2931 0C37.8248 0 37.3287 0.0994193 36.8188 0.296048L2.11316 13.6634C0.271365 14.3726 0.0233112 15.4368 0.0392642 16.0081C0.0552172 16.5793 0.362704 17.6278 2.24141 18.231C2.25267 18.2344 2.26393 18.2379 2.27519 18.2411L9.47407 20.3197L13.3672 31.5525C13.8981 33.0839 15.0895 34.0352 16.4771 34.0352C17.3521 34.0352 18.2126 33.6653 18.9658 32.9659L23.4186 28.8291L29.8771 34.0762C29.8777 34.0768 29.8786 34.0771 29.8792 34.0778L29.9405 34.1276C29.9462 34.1321 29.9521 34.1368 29.9578 34.1412C30.6756 34.703 31.4592 34.9997 32.2246 35H32.225C33.7205 35 34.9113 33.883 35.2582 32.1547L40.9447 3.8237C41.173 2.68653 40.9816 1.66898 40.4054 0.958212ZM11.8824 19.9249L25.7712 12.7657L17.1231 22.0376C16.9814 22.1894 16.881 22.3753 16.8315 22.5776L15.164 29.3931L11.8824 19.9249ZM17.3383 31.1826C17.2807 31.236 17.2229 31.2836 17.165 31.3275L18.7121 25.0051L21.5264 27.2917L17.3383 31.1826ZM38.5902 3.34238L32.9037 31.6737C32.849 31.9448 32.6741 32.5757 32.2246 32.5757C32.0026 32.5757 31.7235 32.4536 31.4379 32.2317L24.1196 26.2861C24.1186 26.2852 24.1174 26.2842 24.1161 26.2836L19.7616 22.7456L32.2678 9.3372C32.6682 8.90797 32.7045 8.25054 32.3538 7.77901C32.0029 7.30747 31.3669 7.15913 30.8467 7.42741L10.2774 18.0302L2.98056 15.9238L37.6756 2.5606C37.9687 2.44761 38.1732 2.42394 38.2931 2.42394C38.3666 2.42394 38.4973 2.43277 38.5458 2.49306C38.6096 2.57165 38.6909 2.8396 38.5902 3.34238Z" fill="#62BAAF"/>
</svg>
