<svg width="952" height="657" viewBox="0 0 952 657" fill="none" xmlns="http://www.w3.org/2000/svg">
<path d="M990.073 514.543C754.079 717.832 538.444 395.715 335.363 190.948C101.196 31.62 20.0926 107.997 20.0926 107.997" stroke="#E3E3E3" stroke-width="7" stroke-dasharray="14 14"/>
<rect width="126.706" height="104" transform="matrix(0.392934 -0.919567 -0.919567 -0.392934 717.635 603.379)" fill="white"/>
<path d="M723.854 559.723C726.637 559.153 729.017 557.537 730.555 555.171C732.093 552.805 732.607 549.974 732.001 547.199C731.395 544.424 729.741 542.037 727.263 540.427L711.586 530.82L712.828 494.749C712.87 493.521 712.259 492.352 711.217 491.677L704.635 487.396C703.734 486.808 702.614 486.662 701.6 486.997C700.586 487.331 699.786 488.112 699.431 489.114L689.446 517.253L672.465 506.85L669.438 495.417C669.082 494.076 667.966 493.061 666.592 492.828C665.219 492.597 663.847 493.194 663.096 494.349L647.606 518.16C647.094 518.947 646.935 519.892 647.13 520.783C647.221 521.199 647.388 521.602 647.633 521.972C648.401 523.133 649.782 523.743 651.152 523.524L662.837 521.659L679.292 533.005L657.553 553.49C656.778 554.22 656.386 555.268 656.489 556.332C656.597 557.398 657.181 558.361 658.085 558.95L664.667 563.231C665.701 563.904 667.008 563.993 668.113 563.466L700.795 547.829L715.823 558.19C718.218 559.748 721.071 560.294 723.854 559.723ZM719.694 552.416L703.054 540.944C702.009 540.223 700.662 540.114 699.528 540.655L666.79 556.318L665.618 555.557L686.844 535.555C687.042 535.368 687.219 535.157 687.367 534.928L687.679 534.449C688.201 533.645 688.346 532.701 688.155 531.826C687.971 530.982 687.474 530.201 686.704 529.669L665.904 515.332C665.946 515.359 665.988 515.388 665.994 515.392C665.89 515.31 665.785 515.228 665.673 515.15C664.917 514.615 663.981 514.396 663.07 514.541L657.812 515.38L664.69 504.808L666.051 509.948C666.289 510.846 666.876 511.617 667.68 512.092C667.783 512.154 667.887 512.208 668.02 512.277L689.468 525.418C691.094 526.415 693.207 525.951 694.233 524.373L694.346 524.2C694.493 523.973 694.613 523.731 694.703 523.477L704.578 495.65L705.749 496.412L704.506 532.545C704.464 533.806 705.11 535.003 706.197 535.67L723.556 546.305C725.198 547.373 725.707 549.713 724.654 551.331C724.128 552.14 723.314 552.692 722.363 552.887C721.411 553.083 720.435 552.896 719.694 552.416Z" fill="#62BAAF"/>
</svg>
