<svg width="952" height="375" viewBox="0 0 952 375" fill="none" xmlns="http://www.w3.org/2000/svg">
<path d="M990.074 232.545C754.079 435.834 538.444 113.717 335.363 -91.0503C101.197 -250.378 20.0931 -174.001 20.0931 -174.001" stroke="#E3E3E3" stroke-width="7" stroke-dasharray="14 14"/>
<rect width="126.706" height="104" transform="matrix(0.392934 -0.919567 -0.919567 -0.392934 717.635 321.38)" fill="white"/>
<path d="M723.854 277.725C726.637 277.155 729.017 275.539 730.555 273.173C732.093 270.807 732.607 267.976 732.001 265.201C731.395 262.426 729.741 260.039 727.263 258.429L711.586 248.822L712.828 212.751C712.87 211.523 712.259 210.354 711.217 209.679L704.635 205.398C703.734 204.81 702.614 204.664 701.6 204.999C700.586 205.333 699.786 206.114 699.431 207.116L689.446 235.255L672.465 224.852L669.438 213.419C669.083 212.078 667.966 211.063 666.592 210.83C665.219 210.599 663.847 211.196 663.096 212.351L647.606 236.162C647.094 236.949 646.935 237.894 647.13 238.785C647.221 239.201 647.388 239.604 647.633 239.974C648.401 241.135 649.782 241.745 651.152 241.526L662.837 239.661L679.292 251.007L657.553 271.492C656.778 272.222 656.386 273.27 656.49 274.334C656.597 275.4 657.181 276.363 658.085 276.952L664.667 281.233C665.701 281.906 667.008 281.995 668.113 281.468L700.795 265.831L715.823 276.191C718.219 277.75 721.071 278.296 723.854 277.725ZM719.694 270.418L703.054 258.945C702.01 258.225 700.662 258.116 699.528 258.657L666.79 274.32L665.618 273.559L686.844 253.557C687.042 253.37 687.219 253.159 687.367 252.93L687.679 252.45C688.202 251.647 688.346 250.703 688.155 249.828C687.971 248.984 687.474 248.203 686.704 247.671L665.904 233.334C665.946 233.361 665.988 233.39 665.994 233.394C665.89 233.312 665.785 233.23 665.673 233.152C664.917 232.617 663.981 232.398 663.07 232.543L657.812 233.382L664.69 222.809L666.052 227.95C666.289 228.848 666.876 229.619 667.68 230.094C667.783 230.155 667.887 230.21 668.02 230.279L689.468 243.42C691.094 244.417 693.207 243.953 694.233 242.375L694.346 242.202C694.493 241.975 694.613 241.733 694.704 241.479L704.578 213.652L705.749 214.414L704.506 250.547C704.464 251.808 705.11 253.005 706.197 253.672L723.556 264.307C725.198 265.375 725.707 267.715 724.654 269.333C724.128 270.142 723.314 270.694 722.363 270.889C721.411 271.085 720.435 270.898 719.694 270.418Z" fill="#62BAAF"/>
</svg>
