<svg width="1920" height="519" viewBox="0 0 1920 519" fill="none" xmlns="http://www.w3.org/2000/svg">
<path d="M1920 470.5C1736.34 674 1475 112.252 1637 68C1799 23.7482 1634.58 413.092 1453.89 445.5C1025.34 522.367 942.116 49.5263 576.278 8.0262C210.44 -33.4739 -4.00012 259.526 -4.00012 259.526" stroke="#E3E3E3" stroke-width="7" stroke-dasharray="14 14"/>
<path d="M1618.65 319.247L1635.23 310.934L1636.63 307.152L1627 298.5L1614.5 310.934L1618.65 319.247Z" fill="white"/>
<rect width="131.951" height="40.924" transform="matrix(-0.860207 0.509945 0.504483 0.863422 251.465 29.502)" fill="white"/>
<path d="M173.827 111.995C171.095 111.157 168.852 109.297 167.51 106.758C166.168 104.219 165.887 101.306 166.72 98.5545C167.553 95.8031 169.4 93.5435 172.006 92.1464L188.446 83.8969L190.165 47.2768C190.224 46.0295 190.929 44.9044 192.025 44.3187L198.947 40.6045C199.896 40.0946 201.025 40.0515 202.01 40.4861C202.995 40.9195 203.73 41.7846 204.002 42.8324L211.664 72.2478L229.47 63.3154L233.431 52.0291C233.895 50.7052 235.094 49.7832 236.484 49.6769C237.874 49.5717 239.195 50.3046 239.85 51.5441L253.363 77.0965C253.809 77.941 253.89 78.9127 253.623 79.7959C253.498 80.2082 253.298 80.6011 253.023 80.9523C252.16 82.0553 250.732 82.5425 249.382 82.1921L237.869 79.2064L220.51 89.1427L240.534 111.916C241.248 112.728 241.553 113.826 241.362 114.893C241.167 115.961 240.505 116.881 239.554 117.392L232.632 121.106C231.544 121.69 230.232 121.657 229.172 121.02L197.825 102.125L181.971 111.197C179.451 112.549 176.559 112.834 173.827 111.995ZM178.58 104.991L196.134 94.9441C197.236 94.3133 198.59 94.3293 199.678 94.9831L231.079 113.911L232.312 113.25L212.76 91.0141C212.578 90.8063 212.418 90.5758 212.289 90.33L212.017 89.8157C211.561 88.9535 211.494 87.9848 211.757 87.1173C212.01 86.2804 212.57 85.5364 213.383 85.07L235.325 72.5157C235.281 72.5393 235.237 72.5639 235.231 72.5682C235.341 72.4947 235.453 72.4216 235.571 72.3528C236.37 71.8823 237.322 71.7489 238.22 71.9814L243.401 73.3245L237.401 61.9787L235.62 67.0534C235.309 67.9393 234.66 68.6647 233.818 69.0702C233.71 69.1223 233.602 69.1681 233.463 69.2255L210.972 80.5087C209.266 81.3651 207.195 80.6969 206.3 79.0034L206.201 78.8177C206.073 78.5745 205.973 78.3179 205.904 78.0522L198.328 48.963L197.095 49.624L195.373 86.3084C195.312 87.5883 194.569 88.739 193.428 89.3121L175.225 98.4434C173.498 99.3697 172.798 101.69 173.716 103.427C174.175 104.295 174.942 104.93 175.876 105.217C176.81 105.504 177.801 105.407 178.58 104.991Z" fill="#62BAAF"/>
</svg>
