<svg width="390" height="880" viewBox="0 0 390 880" fill="none" xmlns="http://www.w3.org/2000/svg">
<path d="M1583.01 1102.93C1340.4 1230.53 1289.02 613.102 1456.34 627.487C1623.66 641.873 1334.95 950.533 1154.18 918.583C725.432 842.801 810.538 370.296 481.509 205.07C152.48 39.8436 -149.915 240.818 -149.915 240.818" stroke="#E3E3E3" stroke-width="7" stroke-dasharray="14 14"/>
<rect width="80.685" height="40.924" transform="matrix(-0.983357 0.181686 0.17545 0.984488 119.474 122.325)" fill="white"/>
<path d="M50.977 160.388C49.3796 159.174 48.3516 157.404 48.0828 155.406C47.8139 153.407 48.3348 151.419 49.5505 149.808C50.7663 148.196 52.5313 147.155 54.5872 146.866L67.4216 145.414L77.4301 121.696C77.7713 120.888 78.5091 120.318 79.3729 120.197L84.8353 119.428C85.584 119.321 86.3389 119.567 86.8826 120.092C87.4269 120.616 87.7013 121.365 87.6268 122.121L85.5463 143.364L99.4466 141.793L104.792 135.315C105.419 134.555 106.433 134.238 107.375 134.505C108.316 134.772 109.009 135.575 109.141 136.551L111.852 156.666C111.942 157.331 111.76 157.991 111.37 158.508C111.187 158.75 110.96 158.96 110.694 159.125C109.858 159.643 108.799 159.618 107.994 159.06L101.13 154.301L87.2812 156.642L94.9581 176.505C95.2319 177.213 95.167 178.01 94.7826 178.667C94.3952 179.324 93.7359 179.77 92.9854 179.876L87.523 180.645C86.6646 180.767 85.8076 180.427 85.2639 179.75L69.1847 159.7L56.5373 161.836C54.549 162.117 52.5738 161.603 50.977 160.388ZM55.8067 156.924L69.8109 154.558C70.6898 154.409 71.5784 154.748 72.1368 155.442L88.2437 175.527L89.2165 175.391L81.7204 155.997C81.6507 155.816 81.6015 155.626 81.576 155.432L81.5214 155.028C81.4299 154.349 81.6205 153.694 82.0038 153.186C82.3736 152.696 82.9229 152.341 83.5716 152.231L101.075 149.276C101.041 149.28 101.006 149.286 101.001 149.287C101.091 149.266 101.182 149.244 101.277 149.228C101.917 149.111 102.577 149.254 103.113 149.625L106.201 151.766L104.997 142.834L102.593 145.747C102.174 146.255 101.57 146.576 100.917 146.639C100.833 146.648 100.751 146.652 100.646 146.656L83.0881 148.641C81.7566 148.792 80.5537 147.849 80.3739 146.516L80.3542 146.37C80.3284 146.178 80.3247 145.985 80.3435 145.793L82.4011 124.786L81.4289 124.923L71.4024 148.682C71.0518 149.511 70.2832 150.089 69.3927 150.19L55.1824 151.796C53.82 151.988 52.7962 153.348 52.9804 154.714C53.0726 155.398 53.4241 156.003 53.9702 156.418C54.5162 156.833 55.1923 157.01 55.8067 156.924Z" fill="#62BAAF"/>
</svg>
