<svg width="19" height="18" viewBox="0 0 19 18" fill="none" xmlns="http://www.w3.org/2000/svg">
<path d="M17.5759 13.6489L14.0007 11.2666C13.4767 10.9184 12.7596 11.0356 12.3734 11.5321L11.3322 12.8732C11.2495 12.9801 11.1012 13.0111 10.984 12.9456L10.7841 12.8353C10.1394 12.4836 9.33262 12.0458 7.70535 10.4151C6.07807 8.78778 5.63678 7.98104 5.28512 7.33634L5.1748 7.13638C5.10929 7.01916 5.14032 6.86746 5.2472 6.78472L6.58487 5.74354C7.08133 5.35741 7.1951 4.6403 6.85034 4.11626L4.46804 0.541086C4.10948 -0.000189515 3.39238 -0.15878 2.83731 0.172191L1.3445 1.06857C0.834249 1.37196 0.465355 1.85118 0.303317 2.42004C-0.248302 4.4231 0.155069 7.87417 5.19893 12.918C7.03306 14.7522 8.79824 16.1105 10.4393 16.9517C11.7942 17.6482 13.0836 17.9998 14.2627 17.9998H14.2868C14.7626 17.9998 15.2349 17.9378 15.6935 17.8136C16.2623 17.6551 16.7415 17.2862 17.0415 16.7759L17.9413 15.2831C18.2757 14.7246 18.1171 14.0075 17.5759 13.6489ZM4.35771 7.58801L4.46459 7.78108C4.84727 8.48095 5.3196 9.34975 7.0434 11.0736C8.76721 12.7974 9.63601 13.2697 10.3359 13.6524L10.5289 13.7592C11.0461 14.0488 11.7115 13.9144 12.07 13.4421L13.1112 12.1044C13.2008 11.9906 13.3663 11.963 13.487 12.0423L17.0587 14.4246C17.1828 14.5074 17.2208 14.6729 17.1415 14.8004L16.2451 16.2967C16.0693 16.6001 15.7866 16.8173 15.4521 16.9138C15.0763 17.0172 14.673 17.069 14.2558 17.069C11.877 17.069 9.05336 15.4486 5.86087 12.2595C1.13419 7.5294 0.717031 4.43344 1.20314 2.66827C1.29968 2.3304 1.51688 2.04769 1.82372 1.87187L3.31653 0.975486C3.36135 0.947905 3.40962 0.934114 3.46133 0.934114C3.55442 0.934114 3.64061 0.978934 3.69232 1.05823L4.98518 3.00268L6.07118 4.63341C6.15047 4.75407 6.12289 4.91956 6.01257 5.0092L4.67489 6.05038C4.20257 6.40548 4.06467 7.07087 4.35771 7.58801Z" fill="#62BAAF"/>
</svg>
