<svg width="194" height="50" viewBox="0 0 194 50" fill="none" xmlns="http://www.w3.org/2000/svg">
<path d="M10.0543 5.52706C11.3239 3.96456 12.7562 2.71131 14.3512 1.7673C15.9788 0.790737 17.7529 0.383836 19.6735 0.546596C21.594 0.709356 23.2705 1.68592 24.7028 3.47628C26.3955 5.75493 26.9814 8.09868 26.4606 10.5075C25.9723 12.9164 24.7842 15.1625 22.8961 17.2458C21.0407 19.3291 18.8271 20.9568 16.2555 22.1286C18.8922 22.975 21.1058 24.391 22.8961 26.3767C24.6865 28.3624 25.6956 30.6735 25.9235 33.3103C26.1513 35.9144 25.1585 38.6488 22.945 41.5134C21.6429 43.1084 20.2594 44.1827 18.7946 44.736C17.3623 45.2894 16.0276 45.3708 14.7907 44.9802C13.5537 44.5896 12.3655 43.9548 11.2262 43.0759C10.0869 42.197 9.1266 41.2204 8.34535 40.1462C7.5641 39.1045 6.96188 38.0791 6.53871 37.07C6.31084 39.9346 6.19691 41.9528 6.19691 43.1247C6.16436 43.613 5.43194 43.9874 3.99964 44.2478C2.37204 44.5407 1.44431 44.378 1.21644 43.7595C1.18389 43.6618 1.16761 43.5642 1.16761 43.4665C0.939749 42.7504 0.728161 39.8858 0.532848 34.8728C0.337536 29.8272 0.321259 24.0004 0.48402 17.3923C0.64678 10.7842 1.10251 5.72238 1.85121 2.20675C2.56735 1.26274 3.59274 0.741908 4.92738 0.644252C6.26201 0.546596 7.45017 0.741908 8.49183 1.23019C9.56605 1.68592 10.152 2.20675 10.2496 2.79269C10.2496 3.05311 10.1845 3.96456 10.0543 5.52706ZM16.9879 3.81808C15.9137 3.78553 14.693 4.25753 13.3258 5.2341C11.9912 6.17811 10.7868 7.36626 9.71254 8.79855C9.54978 10.361 9.02894 14.7068 8.15004 21.8357C9.48467 21.8682 11.4215 20.6963 13.9606 18.32C16.9554 15.488 18.9411 12.7211 19.9176 10.0193C21.122 6.66639 20.1455 4.59933 16.9879 3.81808ZM16.4996 40.195C17.053 39.4138 17.4599 38.3721 17.7203 37.07C18.0133 35.7354 18.0621 34.3194 17.8668 32.822C17.7041 31.3246 17.2972 29.9249 16.6461 28.6228C16.0276 27.2881 14.9534 26.1814 13.4235 25.3025C11.8935 24.391 10.0543 23.9353 7.90589 23.9353C7.51527 27.4509 7.23858 30.0388 7.07582 31.6989C7.14092 31.7966 7.28741 32.0407 7.51527 32.4314C7.77569 32.7894 8.05238 33.1963 8.34535 33.6521C8.63832 34.0752 8.96384 34.5798 9.32191 35.1657C9.71254 35.7517 10.1032 36.3213 10.4938 36.8747C10.917 37.3956 11.3564 37.9164 11.8121 38.4372C12.2679 38.9581 12.7073 39.3975 13.1305 39.7556C13.5537 40.1137 13.9606 40.3903 14.3512 40.5857C14.7744 40.8135 15.165 40.8949 15.5231 40.8298C15.9137 40.7647 16.2392 40.5531 16.4996 40.195Z" fill="#62BAAF"/>
<path d="M37.984 14.7068C40.0999 14.6742 41.8414 15.3252 43.2086 16.6599C45.0641 18.4502 45.1455 20.6312 43.4528 23.2028C41.8252 25.7094 38.6188 28.281 33.8336 30.9177C35.7542 38.7302 39.693 36.7608 45.65 25.0095C46.2034 23.8702 46.9521 22.3077 47.8961 20.322C48.4495 19.1827 48.8239 18.4177 49.0192 18.0271C49.1819 17.8318 49.4261 17.7504 49.7516 17.7829C50.0771 17.8155 50.2562 17.9294 50.2887 18.1247C49.4098 21.3799 48.1728 24.6026 46.5778 27.7927C44.9827 30.9502 43.1435 33.7334 41.0602 36.1423C39.0094 38.5512 36.7145 39.6579 34.1754 39.4626C31.6689 39.2673 29.3089 37.3793 27.0953 33.7985C26.6396 33.0173 26.3304 32.0407 26.1676 30.8689C25.9723 29.6644 25.9235 28.3786 26.0211 27.0114C26.0862 25.6443 26.3955 24.2771 26.9489 22.9099C27.5022 21.5101 28.2184 20.2406 29.0973 19.1013C29.9762 17.9294 31.1806 16.9528 32.7106 16.1716C34.2731 15.3578 36.0309 14.8695 37.984 14.7068ZM40.6207 17.7341C39.5465 17.7015 38.4397 18.4502 37.3004 19.9802C36.1611 21.5101 35.2985 23.1052 34.7125 24.7653C34.1266 26.393 33.9476 27.4346 34.1754 27.8903C36.2262 27.2393 38.1793 25.807 40.0348 23.5935C41.8252 21.4776 42.4762 19.8337 41.9879 18.6618C41.7601 18.1735 41.3043 17.8643 40.6207 17.7341Z" fill="#62BAAF"/>
<path d="M52.0465 15.3903C52.5999 15.195 53.137 15.0974 53.6578 15.0974C54.1787 15.0648 54.6832 15.1625 55.1715 15.3903C55.6598 15.5857 56.0667 15.7647 56.3922 15.9275C56.7503 16.0902 57.1735 16.3995 57.6618 16.8552C58.15 17.2784 58.4918 17.6039 58.6871 17.8318C58.8825 18.0271 59.2243 18.3851 59.7125 18.906C59.9404 17.8318 60.6077 17.0668 61.7145 16.611C62.8213 16.1228 63.8792 16.0414 64.8883 16.3669C65.8974 16.6924 66.3857 17.3109 66.3532 18.2224C63.7815 28.932 63.3421 34.0915 65.0348 33.7009C66.695 33.3428 70.0153 27.9555 74.9957 17.5388C75.0283 17.5062 75.1422 17.4737 75.3375 17.4411C75.5328 17.4086 75.7119 17.4086 75.8746 17.4411C76.07 17.4737 76.1513 17.5713 76.1188 17.7341C75.7282 19.1989 75.3864 20.4196 75.0934 21.3962C74.833 22.3728 74.4423 23.626 73.9215 25.156C73.4007 26.6859 72.8961 27.9555 72.4078 28.9646C71.9196 29.9737 71.3011 31.0642 70.5524 32.236C69.8362 33.4079 69.0875 34.3194 68.3063 34.9704C67.525 35.6215 66.6136 36.1423 65.5719 36.5329C64.5628 36.891 63.4886 37.0049 62.3493 36.8747C60.6565 36.6469 59.5009 35.654 58.8825 33.8962C57.8733 35.7517 56.4899 36.9073 54.7321 37.363C53.0068 37.7862 51.1025 37.2979 49.0192 35.8982C47.5869 34.6612 46.7405 32.5127 46.4801 29.4528C46.2197 26.3604 46.6103 23.3982 47.652 20.5661C48.6937 17.7015 50.1585 15.9763 52.0465 15.3903ZM59.2243 21.5915C58.2477 20.4522 57.3037 19.9476 56.3922 20.0778C55.5133 20.0778 54.7483 20.973 54.0973 22.7634C53.4788 24.5212 53.1533 26.3767 53.1207 28.3298C53.1207 30.2829 53.3486 31.9431 53.8043 33.3103C54.2926 33.8962 54.9762 33.4893 55.8551 32.0896C56.734 30.6573 57.6129 28.8506 58.4918 26.6696C58.7197 24.7816 58.9638 23.0889 59.2243 21.5915Z" fill="#62BAAF"/>
<path d="M72.4567 8.74972C75.2887 8.22889 77.0628 8.74972 77.7789 10.3122C78.5276 11.8747 77.9091 14.3975 75.9235 17.8806C76.9651 17.7504 78.2835 17.2946 79.8785 16.5134C81.4736 15.6996 82.5478 15.0485 83.1012 14.5603C83.5895 14.1371 84.1429 13.9092 84.7614 13.8767C85.3798 13.8116 85.9495 13.8929 86.4703 14.1208C87.0237 14.3487 87.5283 14.6091 87.984 14.9021C88.4397 15.1625 88.7978 15.4229 89.0582 15.6833C89.3187 15.9437 89.4326 16.0902 89.4 16.1228C89.4977 16.253 88.9931 17.7341 87.8864 20.5661C86.8121 23.3656 85.8681 26.1976 85.0543 29.0622C84.2405 31.8943 84.1917 33.5056 84.9078 33.8962C86.1123 34.6124 87.6748 33.8799 89.5953 31.6989C91.5159 29.4854 93.1923 27.0114 94.6246 24.2771C96.0569 21.5427 97.0172 19.378 97.5055 17.7829C97.6357 17.5225 97.9287 17.5062 98.3844 17.7341C98.4821 17.7992 98.5472 17.848 98.5797 17.8806C98.4821 19.736 97.831 22.0798 96.6266 24.9118C95.4222 27.7113 93.8922 30.3155 92.0368 32.7243C90.1813 35.1332 88.1468 36.8584 85.9332 37.9001C83.7197 38.9418 81.5713 38.6163 79.4879 36.9235C78.9345 36.24 78.6253 35.1657 78.5602 33.7009C78.4951 32.2035 78.6253 30.5922 78.9508 28.8669C79.3089 27.1416 79.6832 25.4815 80.0739 23.8864C80.497 22.2914 80.8877 20.8428 81.2457 19.5407C81.6364 18.2387 81.8479 17.4574 81.8805 17.197C80.7086 17.7829 79.8623 18.1898 79.3414 18.4177C78.8532 18.6456 78.1045 18.9222 77.0953 19.2478C76.1188 19.5733 75.2236 19.7035 74.4098 19.6384C73.6285 19.5407 72.831 19.2803 72.0172 18.8571C70.9104 18.1084 70.1618 17.0017 69.7711 15.5368C69.3479 14.0394 69.3805 12.6234 69.8688 11.2888C70.3571 9.95415 71.2197 9.10779 72.4567 8.74972ZM75.5328 11.3864C74.8167 11.3539 74.247 11.7933 73.8239 12.7048C73.3681 13.6163 73.1728 14.6091 73.2379 15.6833C73.303 16.725 73.596 17.4249 74.1168 17.7829C74.1494 17.6202 74.2796 17.2784 74.5075 16.7575C74.7353 16.2041 74.9632 15.6508 75.191 15.0974C75.4189 14.544 75.6142 13.9906 75.777 13.4372C75.9723 12.8513 76.0537 12.3793 76.0211 12.0212C75.9886 11.6306 75.8258 11.419 75.5328 11.3864Z" fill="#62BAAF"/>
<path d="M99.361 2.93917C108.052 2.5811 119.039 2.82524 132.32 3.6716C133.362 4.94113 133.736 6.19438 133.443 7.43136C133.183 8.63579 132.645 9.33566 131.832 9.53097C128.739 9.43331 124.605 9.25428 119.429 8.99386C119.201 11.1749 118.729 14.837 118.013 19.9802C117.33 25.0909 116.744 29.7458 116.256 33.945C115.767 38.1117 115.523 41.2041 115.523 43.2224C115.523 43.8083 115.1 44.2803 114.254 44.6384C113.407 44.9965 112.561 45.0778 111.714 44.8825C110.868 44.7198 110.445 44.2803 110.445 43.5642C110.119 42.4574 109.924 38.0791 109.859 30.4294C109.794 22.7471 110.087 15.4717 110.738 8.60324C105.367 8.37537 101.672 8.26144 99.6539 8.26144C98.3844 8.32654 97.5869 7.91964 97.2614 7.04074C96.9358 6.12928 97.0172 5.21782 97.5055 4.30636C97.9938 3.3949 98.6123 2.93917 99.361 2.93917Z" fill="#62BAAF"/>
<path d="M128.756 8.74972C131.588 8.22889 133.362 8.74972 134.078 10.3122C134.826 11.8747 134.208 14.3975 132.222 17.8806C133.264 17.7504 134.582 17.2946 136.177 16.5134C137.772 15.6996 138.847 15.0485 139.4 14.5603C139.888 14.1371 140.442 13.9092 141.06 13.8767C141.679 13.8116 142.248 13.8929 142.769 14.1208C143.323 14.3487 143.827 14.6091 144.283 14.9021C144.739 15.1625 145.097 15.4229 145.357 15.6833C145.617 15.9437 145.731 16.0902 145.699 16.1228C145.797 16.253 145.292 17.7341 144.185 20.5661C143.111 23.3656 142.167 26.1976 141.353 29.0622C140.539 31.8943 140.491 33.5056 141.207 33.8962C142.411 34.6124 143.974 33.8799 145.894 31.6989C147.815 29.4854 149.491 27.0114 150.923 24.2771C152.356 21.5427 153.316 19.378 153.804 17.7829C153.935 17.5225 154.228 17.5062 154.683 17.7341C154.781 17.7992 154.846 17.848 154.879 17.8806C154.781 19.736 154.13 22.0798 152.925 24.9118C151.721 27.7113 150.191 30.3155 148.336 32.7243C146.48 35.1332 144.446 36.8584 142.232 37.9001C140.019 38.9418 137.87 38.6163 135.787 36.9235C135.233 36.24 134.924 35.1657 134.859 33.7009C134.794 32.2035 134.924 30.5922 135.25 28.8669C135.608 27.1416 135.982 25.4815 136.373 23.8864C136.796 22.2914 137.186 20.8428 137.545 19.5407C137.935 18.2387 138.147 17.4574 138.179 17.197C137.007 17.7829 136.161 18.1898 135.64 18.4177C135.152 18.6456 134.403 18.9222 133.394 19.2478C132.418 19.5733 131.522 19.7035 130.709 19.6384C129.927 19.5407 129.13 19.2803 128.316 18.8571C127.209 18.1084 126.461 17.0017 126.07 15.5368C125.647 14.0394 125.679 12.6234 126.168 11.2888C126.656 9.95415 127.519 9.10779 128.756 8.74972ZM131.832 11.3864C131.116 11.3539 130.546 11.7933 130.123 12.7048C129.667 13.6163 129.472 14.6091 129.537 15.6833C129.602 16.725 129.895 17.4249 130.416 17.7829C130.448 17.6202 130.578 17.2784 130.806 16.7575C131.034 16.2041 131.262 15.6508 131.49 15.0974C131.718 14.544 131.913 13.9906 132.076 13.4372C132.271 12.8513 132.353 12.3793 132.32 12.0212C132.287 11.6306 132.125 11.419 131.832 11.3864Z" fill="#62BAAF"/>
<path d="M156.441 11.0935C158.069 10.6703 159.175 10.8982 159.761 11.7771C160.054 12.2979 160.071 13.014 159.81 13.9255C159.55 14.8044 159.078 15.3252 158.394 15.488C157.678 15.6833 156.913 15.7159 156.099 15.5857C155.285 15.4229 154.765 15.0974 154.537 14.6091C154.276 14.0557 154.341 13.3721 154.732 12.5583C155.155 11.7445 155.725 11.2562 156.441 11.0935ZM152.535 17.2946C153.056 16.611 154.358 16.4157 156.441 16.7087C158.557 17.0017 159.647 17.49 159.713 18.1735C159.647 18.434 159.566 18.792 159.468 19.2478C159.371 19.7035 159.224 20.5824 159.029 21.8845C158.834 23.1866 158.687 24.4235 158.589 25.5954C158.492 26.7673 158.476 28.0694 158.541 29.5017C158.606 30.9014 158.785 32.0733 159.078 33.0173C160.054 35.5564 161.649 33.9776 163.863 28.281C164.807 25.807 165.93 22.3239 167.232 17.8318C167.427 17.5388 167.688 17.376 168.013 17.3435C168.339 17.3109 168.616 17.3597 168.843 17.49C169.071 17.6202 169.169 17.7341 169.136 17.8318C168.811 21.5427 167.704 25.6117 165.816 30.0388C163.537 35.4099 161.145 38.4047 158.638 39.0232C156.718 39.5114 154.911 38.4209 153.218 35.7517C151.461 33.2452 151.086 28.0043 152.095 20.029L152.535 17.2946Z" fill="#62BAAF"/>
<path d="M180.269 15.0974C184.599 15.0974 185.982 18.6781 184.42 25.8396C186.861 23.626 189.221 20.8754 191.5 17.5876C191.63 17.4249 191.841 17.3597 192.134 17.3923C192.427 17.3923 192.688 17.49 192.916 17.6853C193.144 17.8806 193.192 18.0759 193.062 18.2712C190.36 22.9262 187.186 26.6208 183.541 29.3552C182.173 33.7823 180.774 36.5329 179.341 37.6071C178.267 38.6814 176.884 39.0557 175.191 38.7302C173.531 38.4047 172.375 37.6722 171.724 36.5329C171.106 35.3936 171.252 34.1241 172.164 32.7243C172.75 32.0407 174.247 31.406 176.656 30.82C178.609 26.9463 179.602 23.919 179.634 21.738C179.634 20.4034 179.146 19.7849 178.17 19.8825C177.779 19.8174 177.372 19.8663 176.949 20.029C176.526 20.1918 176.119 20.4685 175.728 20.8591C175.37 21.2497 175.028 21.6566 174.703 22.0798C174.377 22.503 174.035 23.0401 173.677 23.6911C173.319 24.3096 173.026 24.8467 172.798 25.3025C172.571 25.7256 172.294 26.2627 171.968 26.9138C171.675 27.5323 171.464 27.9555 171.334 28.1833C171.301 30.9828 171.285 37.184 171.285 46.7868C171.317 47.9262 170.894 48.6911 170.015 49.0818C169.169 49.4724 168.306 49.5049 167.427 49.1794C166.548 48.8539 166.125 48.3982 166.158 47.8122C165.637 45.1104 165.279 41.2855 165.084 36.3376C164.856 31.3571 164.774 26.9463 164.839 23.1052C164.905 19.264 165.035 17.0505 165.23 16.4646C165.1 16.0739 165.474 15.6996 166.353 15.3415C167.851 14.723 169.25 14.6905 170.552 15.2439C171.171 15.5043 171.643 15.9112 171.968 16.4646C171.708 16.725 171.529 18.9385 171.431 23.1052C172.506 20.6312 173.808 18.6781 175.338 17.2458C176.9 15.8135 178.544 15.0974 180.269 15.0974ZM174.947 33.7985C174.003 34.0915 173.401 34.3194 173.14 34.4821C172.912 34.6449 172.945 34.8565 173.238 35.1169C173.368 35.3122 173.58 35.2959 173.873 35.0681C174.166 34.8077 174.524 34.3845 174.947 33.7985Z" fill="#62BAAF"/>
</svg>
