<svg width="193" height="1463" viewBox="0 0 193 1463" fill="none" xmlns="http://www.w3.org/2000/svg">
<path d="M-311.386 1461.55C-388.895 1033.11 83.8214 949.18 124.774 583.281C165.727 217.381 -127.594 3.3799 -127.594 3.3799" stroke="#E3E3E3" stroke-width="7" stroke-dasharray="14 14"/>
<rect x="64" y="370" width="129" height="104" fill="white"/>
<path d="M107.358 381.435C109.005 379.099 111.47 377.546 114.301 377.061C117.131 376.576 119.987 377.216 122.343 378.864C124.698 380.511 126.271 382.97 126.787 385.881L129.51 404.073L163.776 417.104C164.943 417.548 165.793 418.569 166.009 419.792L167.384 427.527C167.573 428.587 167.262 429.674 166.543 430.475C165.824 431.276 164.774 431.705 163.693 431.638L133.354 429.763L136.301 449.465L145.793 456.742C146.907 457.595 147.41 459.021 147.079 460.375C146.746 461.729 145.638 462.756 144.256 462.993L115.767 467.881C114.826 468.043 113.877 467.817 113.121 467.288C112.768 467.041 112.457 466.729 112.209 466.358C111.429 465.196 111.411 463.687 112.164 462.513L118.585 452.5L114.545 432.911L86.67 444.852C85.6764 445.278 84.5386 445.226 83.5837 444.713C82.6289 444.195 81.9606 443.28 81.7717 442.217L80.3967 434.482C80.1798 433.267 80.6194 432.03 81.5552 431.221L109.269 407.312L105.581 389.422C105.081 386.607 105.711 383.769 107.358 381.435ZM112.535 388.131L116.619 407.941C116.875 409.184 116.439 410.466 115.479 411.296L87.7174 435.246L87.9615 436.624L115.179 424.964C115.433 424.855 115.702 424.776 115.975 424.729L116.549 424.631C117.51 424.466 118.452 424.704 119.194 425.223C119.911 425.725 120.443 426.488 120.634 427.406L125.735 452.166C125.726 452.117 125.716 452.067 125.714 452.06C125.75 452.188 125.784 452.316 125.813 452.45C126.012 453.356 125.842 454.302 125.342 455.083L122.453 459.588L135.102 457.418L130.834 454.146C130.089 453.574 129.602 452.732 129.478 451.806C129.462 451.687 129.453 451.57 129.441 451.42L125.719 426.534C125.436 424.647 126.716 422.887 128.604 422.563L128.811 422.527C129.082 422.481 129.357 422.465 129.631 422.482L159.633 424.337L159.388 422.96L125.062 409.905C123.865 409.449 123.003 408.384 122.813 407.122L119.801 386.98C119.458 385.051 117.471 383.664 115.535 383.996C114.567 384.162 113.724 384.693 113.161 385.492C112.598 386.29 112.382 387.261 112.535 388.131Z" fill="#62BAAF"/>
</svg>
