<svg width="247" height="1463" viewBox="0 0 247 1463" fill="none" xmlns="http://www.w3.org/2000/svg">
<path d="M495.575 1461.55C571.705 1033.11 107.395 949.183 67.1709 583.284C26.9464 217.384 315.051 3.38274 315.051 3.38274" stroke="#E3E3E3" stroke-width="7" stroke-dasharray="14 14"/>
<rect width="126.706" height="104" transform="matrix(-1 0 0 1 126.864 370)" fill="white"/>
<path d="M84.2774 381.435C82.6602 379.099 80.2387 377.546 77.4584 377.061C74.6781 376.576 71.8728 377.216 69.5592 378.864C67.2456 380.511 65.701 382.97 65.1936 385.881L62.5193 404.073L28.8625 417.104C27.7163 417.548 26.8818 418.569 26.6699 419.792L25.3193 427.527C25.1334 428.587 25.4384 429.674 26.1452 430.475C26.851 431.276 27.883 431.705 28.9443 431.638L58.7436 429.763L55.8497 449.465L46.5256 456.742C45.4318 457.595 44.9375 459.021 45.2633 460.375C45.5899 461.729 46.6779 462.756 48.0353 462.993L76.0176 467.881C76.9424 468.043 77.8741 467.817 78.6168 467.288C78.9635 467.041 79.2692 466.729 79.5128 466.358C80.2788 465.196 80.2969 463.687 79.5572 462.513L73.2504 452.5L77.2182 432.911L104.598 444.852C105.574 445.278 106.691 445.226 107.629 444.713C108.567 444.195 109.223 443.28 109.409 442.217L110.759 434.482C110.972 433.267 110.541 432.03 109.621 431.221L82.4008 407.312L86.0229 389.422C86.5145 386.607 85.8956 383.769 84.2774 381.435ZM79.1928 388.131L75.1815 407.941C74.9295 409.184 75.3585 410.466 76.3013 411.296L103.569 435.246L103.329 436.624L76.5959 424.964C76.3462 424.855 76.0824 424.776 75.8135 424.729L75.2502 424.631C74.306 424.466 73.3813 424.704 72.6519 425.223C71.9481 425.725 71.4248 426.488 71.2379 427.406L66.2275 452.166C66.2361 452.117 66.2456 452.067 66.2477 452.06C66.2129 452.188 66.1787 452.316 66.1505 452.45C65.9557 453.356 66.1222 454.302 66.6138 455.083L69.4513 459.588L57.0266 457.418L61.2189 454.146C61.9507 453.574 62.4295 452.732 62.5506 451.806C62.5663 451.687 62.5759 451.57 62.5871 451.42L66.2432 426.534C66.5212 424.647 65.2642 422.887 63.4097 422.563L63.2064 422.527C62.9401 422.481 62.6699 422.465 62.4008 422.482L32.9319 424.337L33.1723 422.96L66.8881 409.905C68.064 409.449 68.9109 408.384 69.0972 407.122L72.0555 386.98C72.3923 385.051 74.3444 383.664 76.2458 383.996C77.1964 384.162 78.0243 384.693 78.5776 385.492C79.1309 386.29 79.343 387.261 79.1928 388.131Z" fill="#62BAAF"/>
</svg>
