<svg width="759" height="405" viewBox="0 0 759 405" fill="none" xmlns="http://www.w3.org/2000/svg">
<path d="M421.538 150.778C417.654 151.07 414.118 152.857 411.58 155.811C409.042 158.766 407.805 162.531 408.099 166.415C408.392 170.298 410.181 173.835 413.235 176.458L432.671 192.263L424.112 241.159C423.821 242.824 424.427 244.521 425.711 245.622L433.824 252.595C434.935 253.551 436.426 253.945 437.865 253.665C439.305 253.386 440.538 252.462 441.211 251.159L460.12 214.581L481.172 231.695L483.1 247.788C483.326 249.676 484.648 251.252 486.466 251.807C488.285 252.36 490.26 251.786 491.499 250.344L517.051 220.615C517.895 219.632 518.29 218.373 518.196 217.126C518.152 216.544 518.003 215.965 517.74 215.419C516.919 213.705 515.163 212.635 513.263 212.695L497.056 213.205L476.896 194.898L510.291 170.783C511.481 169.923 512.212 168.564 512.275 167.097C512.332 165.627 511.723 164.214 510.609 163.256L502.496 156.284C501.222 155.187 499.465 154.839 497.866 155.365L450.552 170.978L432.14 154.261C429.187 151.723 425.422 150.484 421.538 150.778ZM425.789 161.449L446.175 179.961C447.454 181.123 449.261 181.506 450.903 180.966L498.299 165.327L499.744 166.567L467.137 190.113C466.833 190.333 466.553 190.59 466.308 190.877L465.794 191.475C464.932 192.478 464.556 193.738 464.648 194.962C464.737 196.144 465.262 197.294 466.206 198.152L491.689 221.286C491.638 221.242 491.586 221.196 491.579 221.188C491.704 221.318 491.831 221.448 491.967 221.574C492.892 222.434 494.119 222.895 495.383 222.855L502.676 222.627L491.331 235.827L490.463 228.591C490.311 227.327 489.663 226.175 488.662 225.388C488.535 225.288 488.404 225.195 488.236 225.078L461.646 203.46C459.63 201.819 456.676 202.084 454.982 204.055L454.796 204.271C454.553 204.554 454.344 204.863 454.174 205.193L435.475 241.366L434.031 240.125L442.605 191.143C442.902 189.434 442.254 187.692 440.906 186.594L419.384 169.099C417.361 167.36 417.116 164.085 418.853 162.065C419.721 161.055 420.93 160.444 422.258 160.344C423.586 160.243 424.875 160.667 425.789 161.449Z" fill="white"/>
<path d="M-44.9999 201.105C-44.9999 201.105 38.4448 82.8095 172.834 73.5351C307.224 64.2606 400.519 145.302 400.519 145.302" stroke="white" stroke-width="8" stroke-dasharray="15 15"/>
<path d="M757.455 387.456C757.455 387.456 678.458 363.836 632.421 337.546C585.119 310.534 522.649 251.89 522.649 251.89" stroke="white" stroke-width="8" stroke-dasharray="15 15"/>
</svg>
