<svg width="156" height="40" viewBox="0 0 156 40" fill="none" xmlns="http://www.w3.org/2000/svg">
<path d="M8.75 4.42188C9.76562 3.17188 10.9115 2.16927 12.1875 1.41406C13.4896 0.632812 14.9089 0.307292 16.4453 0.4375C17.9818 0.567708 19.3229 1.34896 20.4688 2.78125C21.8229 4.60417 22.2917 6.47917 21.875 8.40625C21.4844 10.3333 20.5339 12.1302 19.0234 13.7969C17.5391 15.4635 15.7682 16.7656 13.7109 17.7031C15.8203 18.3802 17.5911 19.513 19.0234 21.1016C20.4557 22.6901 21.263 24.5391 21.4453 26.6484C21.6276 28.7318 20.8333 30.9193 19.0625 33.2109C18.0208 34.487 16.9141 35.3464 15.7422 35.7891C14.5964 36.2318 13.5286 36.2969 12.5391 35.9844C11.5495 35.6719 10.599 35.1641 9.6875 34.4609C8.77604 33.7578 8.00781 32.9766 7.38281 32.1172C6.75781 31.2839 6.27604 30.4635 5.9375 29.6562C5.75521 31.9479 5.66406 33.5625 5.66406 34.5C5.63802 34.8906 5.05208 35.1901 3.90625 35.3984C2.60417 35.6328 1.86198 35.5026 1.67969 35.0078C1.65365 34.9297 1.64062 34.8516 1.64062 34.7734C1.45833 34.2005 1.28906 31.9089 1.13281 27.8984C0.976562 23.862 0.963542 19.2005 1.09375 13.9141C1.22396 8.6276 1.58854 4.57812 2.1875 1.76562C2.76042 1.01042 3.58073 0.59375 4.64844 0.515625C5.71615 0.4375 6.66667 0.59375 7.5 0.984375C8.35938 1.34896 8.82812 1.76562 8.90625 2.23438C8.90625 2.44271 8.85417 3.17188 8.75 4.42188ZM14.2969 3.05469C13.4375 3.02865 12.4609 3.40625 11.3672 4.1875C10.2995 4.94271 9.33594 5.89323 8.47656 7.03906C8.34635 8.28906 7.92969 11.7656 7.22656 17.4688C8.29427 17.4948 9.84375 16.5573 11.875 14.6562C14.2708 12.3906 15.8594 10.1771 16.6406 8.01562C17.6042 5.33333 16.8229 3.67969 14.2969 3.05469ZM13.9062 32.1562C14.349 31.5312 14.6745 30.6979 14.8828 29.6562C15.1172 28.5885 15.1562 27.4557 15 26.2578C14.8698 25.0599 14.5443 23.9401 14.0234 22.8984C13.5286 21.8307 12.6693 20.9453 11.4453 20.2422C10.2214 19.513 8.75 19.1484 7.03125 19.1484C6.71875 21.9609 6.4974 24.0312 6.36719 25.3594C6.41927 25.4375 6.53646 25.6328 6.71875 25.9453C6.92708 26.2318 7.14844 26.5573 7.38281 26.9219C7.61719 27.2604 7.8776 27.6641 8.16406 28.1328C8.47656 28.6016 8.78906 29.0573 9.10156 29.5C9.4401 29.9167 9.79167 30.3333 10.1562 30.75C10.5208 31.1667 10.8724 31.5182 11.2109 31.8047C11.5495 32.0911 11.875 32.3125 12.1875 32.4688C12.526 32.651 12.8385 32.7161 13.125 32.6641C13.4375 32.612 13.6979 32.4427 13.9062 32.1562ZM31.0938 11.7656C32.7865 11.7396 34.1797 12.2604 35.2734 13.3281C36.7578 14.7604 36.8229 16.5052 35.4688 18.5625C34.1667 20.5677 31.6016 22.625 27.7734 24.7344C29.3099 30.9844 32.4609 29.4089 37.2266 20.0078C37.6693 19.0964 38.2682 17.8464 39.0234 16.2578C39.4661 15.3464 39.7656 14.7344 39.9219 14.4219C40.0521 14.2656 40.2474 14.2005 40.5078 14.2266C40.7682 14.2526 40.9115 14.3438 40.9375 14.5C40.2344 17.1042 39.2448 19.6823 37.9688 22.2344C36.6927 24.7604 35.2214 26.987 33.5547 28.9141C31.9141 30.8411 30.0781 31.7266 28.0469 31.5703C26.0417 31.4141 24.1536 29.9036 22.3828 27.0391C22.0182 26.4141 21.7708 25.6328 21.6406 24.6953C21.4844 23.7318 21.4453 22.7031 21.5234 21.6094C21.5755 20.5156 21.8229 19.4219 22.2656 18.3281C22.7083 17.2083 23.2812 16.1927 23.9844 15.2812C24.6875 14.3438 25.651 13.5625 26.875 12.9375C28.125 12.2865 29.5312 11.8958 31.0938 11.7656ZM33.2031 14.1875C32.3438 14.1615 31.4583 14.7604 30.5469 15.9844C29.6354 17.2083 28.9453 18.4844 28.4766 19.8125C28.0078 21.1146 27.8646 21.9479 28.0469 22.3125C29.6875 21.7917 31.25 20.6458 32.7344 18.875C34.1667 17.1823 34.6875 15.8672 34.2969 14.9297C34.1146 14.5391 33.75 14.2917 33.2031 14.1875ZM42.3438 12.3125C42.7865 12.1562 43.2161 12.0781 43.6328 12.0781C44.0495 12.0521 44.4531 12.1302 44.8438 12.3125C45.2344 12.4688 45.5599 12.612 45.8203 12.7422C46.1068 12.8724 46.4453 13.1198 46.8359 13.4844C47.2266 13.8229 47.5 14.0833 47.6562 14.2656C47.8125 14.4219 48.0859 14.7083 48.4766 15.125C48.6589 14.2656 49.1927 13.6536 50.0781 13.2891C50.9635 12.8984 51.8099 12.8333 52.6172 13.0938C53.4245 13.3542 53.8151 13.849 53.7891 14.5781C51.7318 23.1458 51.3802 27.2734 52.7344 26.9609C54.0625 26.6745 56.7188 22.3646 60.7031 14.0312C60.7292 14.0052 60.8203 13.9792 60.9766 13.9531C61.1328 13.9271 61.276 13.9271 61.4062 13.9531C61.5625 13.9792 61.6276 14.0573 61.6016 14.1875C61.2891 15.3594 61.0156 16.3359 60.7812 17.1172C60.5729 17.8984 60.2604 18.901 59.8438 20.125C59.4271 21.349 59.0234 22.3646 58.6328 23.1719C58.2422 23.9792 57.7474 24.8516 57.1484 25.7891C56.5755 26.7266 55.9766 27.4557 55.3516 27.9766C54.7266 28.4974 53.9974 28.9141 53.1641 29.2266C52.3568 29.513 51.4974 29.6042 50.5859 29.5C49.2318 29.3177 48.3073 28.5234 47.8125 27.1172C47.0052 28.6016 45.8984 29.526 44.4922 29.8906C43.112 30.2292 41.5885 29.8385 39.9219 28.7188C38.776 27.7292 38.099 26.0104 37.8906 23.5625C37.6823 21.0885 37.9948 18.7188 38.8281 16.4531C39.6615 14.1615 40.8333 12.7812 42.3438 12.3125ZM48.0859 17.2734C47.3047 16.362 46.5495 15.9583 45.8203 16.0625C45.1172 16.0625 44.5052 16.7786 43.9844 18.2109C43.4896 19.6172 43.2292 21.1016 43.2031 22.6641C43.2031 24.2266 43.3854 25.5547 43.75 26.6484C44.1406 27.1172 44.6875 26.7917 45.3906 25.6719C46.0938 24.526 46.7969 23.0807 47.5 21.3359C47.6823 19.8255 47.8776 18.4714 48.0859 17.2734ZM58.6719 7C60.9375 6.58333 62.3568 7 62.9297 8.25C63.5286 9.5 63.0339 11.5182 61.4453 14.3047C62.2786 14.2005 63.3333 13.8359 64.6094 13.2109C65.8854 12.5599 66.7448 12.0391 67.1875 11.6484C67.5781 11.3099 68.0208 11.1276 68.5156 11.1016C69.0104 11.0495 69.4661 11.1146 69.8828 11.2969C70.3255 11.4792 70.7292 11.6875 71.0938 11.9219C71.4583 12.1302 71.7448 12.3385 71.9531 12.5469C72.1615 12.7552 72.2526 12.8724 72.2266 12.8984C72.3047 13.0026 71.901 14.1875 71.0156 16.4531C70.1562 18.6927 69.401 20.9583 68.75 23.25C68.099 25.5156 68.0599 26.8047 68.6328 27.1172C69.5964 27.6901 70.8464 27.1042 72.3828 25.3594C73.9193 23.5885 75.2604 21.6094 76.4062 19.4219C77.5521 17.2344 78.3203 15.5026 78.7109 14.2266C78.8151 14.0182 79.0495 14.0052 79.4141 14.1875C79.4922 14.2396 79.5443 14.2786 79.5703 14.3047C79.4922 15.7891 78.9714 17.6641 78.0078 19.9297C77.0443 22.1693 75.8203 24.2526 74.3359 26.1797C72.8516 28.1068 71.224 29.487 69.4531 30.3203C67.6823 31.1536 65.9635 30.8932 64.2969 29.5391C63.8542 28.9922 63.6068 28.1328 63.5547 26.9609C63.5026 25.763 63.6068 24.474 63.8672 23.0938C64.1536 21.7135 64.4531 20.3854 64.7656 19.1094C65.1042 17.8333 65.4167 16.6745 65.7031 15.6328C66.0156 14.5911 66.1849 13.9661 66.2109 13.7578C65.2734 14.2266 64.5964 14.5521 64.1797 14.7344C63.7891 14.9167 63.1901 15.138 62.3828 15.3984C61.6016 15.6589 60.8854 15.763 60.2344 15.7109C59.6094 15.6328 58.9714 15.4245 58.3203 15.0859C57.4349 14.487 56.8359 13.6016 56.5234 12.4297C56.1849 11.2318 56.2109 10.099 56.6016 9.03125C56.9922 7.96354 57.6823 7.28646 58.6719 7ZM61.1328 9.10938C60.5599 9.08333 60.1042 9.4349 59.7656 10.1641C59.401 10.8932 59.2448 11.6875 59.2969 12.5469C59.349 13.3802 59.5833 13.9401 60 14.2266C60.026 14.0964 60.1302 13.8229 60.3125 13.4062C60.4948 12.9635 60.6771 12.5208 60.8594 12.0781C61.0417 11.6354 61.1979 11.1927 61.3281 10.75C61.4844 10.2812 61.5495 9.90365 61.5234 9.61719C61.4974 9.30469 61.3672 9.13542 61.1328 9.10938ZM80.1953 2.35156C87.1484 2.0651 95.9375 2.26042 106.562 2.9375C107.396 3.95312 107.695 4.95573 107.461 5.94531C107.253 6.90885 106.823 7.46875 106.172 7.625C103.698 7.54688 100.391 7.40365 96.25 7.19531C96.0677 8.9401 95.6901 11.8698 95.1172 15.9844C94.5703 20.0729 94.1016 23.7969 93.7109 27.1562C93.3203 30.4896 93.125 32.9635 93.125 34.5781C93.125 35.0469 92.7865 35.4245 92.1094 35.7109C91.4323 35.9974 90.7552 36.0625 90.0781 35.9062C89.401 35.776 89.0625 35.4245 89.0625 34.8516C88.8021 33.9661 88.6458 30.4635 88.5938 24.3438C88.5417 18.1979 88.776 12.3776 89.2969 6.88281C85 6.70052 82.0443 6.60938 80.4297 6.60938C79.4141 6.66146 78.776 6.33594 78.5156 5.63281C78.2552 4.90365 78.3203 4.17448 78.7109 3.44531C79.1016 2.71615 79.5964 2.35156 80.1953 2.35156ZM103.711 7C105.977 6.58333 107.396 7 107.969 8.25C108.568 9.5 108.073 11.5182 106.484 14.3047C107.318 14.2005 108.372 13.8359 109.648 13.2109C110.924 12.5599 111.784 12.0391 112.227 11.6484C112.617 11.3099 113.06 11.1276 113.555 11.1016C114.049 11.0495 114.505 11.1146 114.922 11.2969C115.365 11.4792 115.768 11.6875 116.133 11.9219C116.497 12.1302 116.784 12.3385 116.992 12.5469C117.201 12.7552 117.292 12.8724 117.266 12.8984C117.344 13.0026 116.94 14.1875 116.055 16.4531C115.195 18.6927 114.44 20.9583 113.789 23.25C113.138 25.5156 113.099 26.8047 113.672 27.1172C114.635 27.6901 115.885 27.1042 117.422 25.3594C118.958 23.5885 120.299 21.6094 121.445 19.4219C122.591 17.2344 123.359 15.5026 123.75 14.2266C123.854 14.0182 124.089 14.0052 124.453 14.1875C124.531 14.2396 124.583 14.2786 124.609 14.3047C124.531 15.7891 124.01 17.6641 123.047 19.9297C122.083 22.1693 120.859 24.2526 119.375 26.1797C117.891 28.1068 116.263 29.487 114.492 30.3203C112.721 31.1536 111.003 30.8932 109.336 29.5391C108.893 28.9922 108.646 28.1328 108.594 26.9609C108.542 25.763 108.646 24.474 108.906 23.0938C109.193 21.7135 109.492 20.3854 109.805 19.1094C110.143 17.8333 110.456 16.6745 110.742 15.6328C111.055 14.5911 111.224 13.9661 111.25 13.7578C110.312 14.2266 109.635 14.5521 109.219 14.7344C108.828 14.9167 108.229 15.138 107.422 15.3984C106.641 15.6589 105.924 15.763 105.273 15.7109C104.648 15.6328 104.01 15.4245 103.359 15.0859C102.474 14.487 101.875 13.6016 101.562 12.4297C101.224 11.2318 101.25 10.099 101.641 9.03125C102.031 7.96354 102.721 7.28646 103.711 7ZM106.172 9.10938C105.599 9.08333 105.143 9.4349 104.805 10.1641C104.44 10.8932 104.284 11.6875 104.336 12.5469C104.388 13.3802 104.622 13.9401 105.039 14.2266C105.065 14.0964 105.169 13.8229 105.352 13.4062C105.534 12.9635 105.716 12.5208 105.898 12.0781C106.081 11.6354 106.237 11.1927 106.367 10.75C106.523 10.2812 106.589 9.90365 106.562 9.61719C106.536 9.30469 106.406 9.13542 106.172 9.10938ZM125.859 8.875C127.161 8.53646 128.047 8.71875 128.516 9.42188C128.75 9.83854 128.763 10.4115 128.555 11.1406C128.346 11.8438 127.969 12.2604 127.422 12.3906C126.849 12.5469 126.237 12.5729 125.586 12.4688C124.935 12.3385 124.518 12.0781 124.336 11.6875C124.128 11.2448 124.18 10.6979 124.492 10.0469C124.831 9.39583 125.286 9.00521 125.859 8.875ZM122.734 13.8359C123.151 13.2891 124.193 13.1328 125.859 13.3672C127.552 13.6016 128.424 13.9922 128.477 14.5391C128.424 14.7474 128.359 15.0339 128.281 15.3984C128.203 15.763 128.086 16.4661 127.93 17.5078C127.773 18.5495 127.656 19.5391 127.578 20.4766C127.5 21.4141 127.487 22.4557 127.539 23.6016C127.591 24.7214 127.734 25.6589 127.969 26.4141C128.75 28.4453 130.026 27.1823 131.797 22.625C132.552 20.6458 133.451 17.8594 134.492 14.2656C134.648 14.0312 134.857 13.901 135.117 13.875C135.378 13.849 135.599 13.888 135.781 13.9922C135.964 14.0964 136.042 14.1875 136.016 14.2656C135.755 17.2344 134.87 20.4896 133.359 24.0312C131.536 28.3281 129.622 30.724 127.617 31.2188C126.081 31.6094 124.635 30.737 123.281 28.6016C121.875 26.5964 121.576 22.4036 122.383 16.0234L122.734 13.8359ZM144.922 12.0781C148.385 12.0781 149.492 14.9427 148.242 20.6719C150.195 18.901 152.083 16.7005 153.906 14.0703C154.01 13.9401 154.18 13.888 154.414 13.9141C154.648 13.9141 154.857 13.9922 155.039 14.1484C155.221 14.3047 155.26 14.4609 155.156 14.6172C152.995 18.3411 150.456 21.2969 147.539 23.4844C146.445 27.026 145.326 29.2266 144.18 30.0859C143.32 30.9453 142.214 31.2448 140.859 30.9844C139.531 30.724 138.607 30.138 138.086 29.2266C137.591 28.3151 137.708 27.2995 138.438 26.1797C138.906 25.6328 140.104 25.125 142.031 24.6562C143.594 21.5573 144.388 19.1354 144.414 17.3906C144.414 16.3229 144.023 15.8281 143.242 15.9062C142.93 15.8542 142.604 15.8932 142.266 16.0234C141.927 16.1536 141.602 16.375 141.289 16.6875C141.003 17 140.729 17.3255 140.469 17.6641C140.208 18.0026 139.935 18.4323 139.648 18.9531C139.362 19.4479 139.128 19.8776 138.945 20.2422C138.763 20.5807 138.542 21.0104 138.281 21.5312C138.047 22.026 137.878 22.3646 137.773 22.5469C137.747 24.7865 137.734 29.7474 137.734 37.4297C137.76 38.3411 137.422 38.9531 136.719 39.2656C136.042 39.5781 135.352 39.6042 134.648 39.3438C133.945 39.0833 133.607 38.7188 133.633 38.25C133.216 36.0885 132.93 33.0286 132.773 29.0703C132.591 25.0859 132.526 21.5573 132.578 18.4844C132.63 15.4115 132.734 13.6406 132.891 13.1719C132.786 12.8594 133.086 12.5599 133.789 12.2734C134.987 11.7786 136.107 11.7526 137.148 12.1953C137.643 12.4036 138.021 12.7292 138.281 13.1719C138.073 13.3802 137.93 15.151 137.852 18.4844C138.711 16.5052 139.753 14.9427 140.977 13.7969C142.227 12.651 143.542 12.0781 144.922 12.0781ZM140.664 27.0391C139.909 27.2734 139.427 27.4557 139.219 27.5859C139.036 27.7161 139.062 27.8854 139.297 28.0938C139.401 28.25 139.57 28.237 139.805 28.0547C140.039 27.8464 140.326 27.5078 140.664 27.0391Z" fill="#62BAAF"/>
</svg>
