<svg width="26" height="24" viewBox="0 0 26 24" fill="none" xmlns="http://www.w3.org/2000/svg">
<path fill-rule="evenodd" clip-rule="evenodd" d="M15.5 18.25H18V19.5C18 21.5711 16.3211 23.25 14.25 23.25H4.25C2.17893 23.25 0.5 21.5711 0.5 19.5V4.5C0.5 2.42893 2.17893 0.75 4.25 0.75H14.25C16.3211 0.75 18 2.42893 18 4.5V5.75H15.5V4.5C15.5 3.80964 14.9404 3.25 14.25 3.25H4.25C3.55964 3.25 3 3.80964 3 4.5V19.5C3 20.1904 3.55964 20.75 4.25 20.75H14.25C14.9404 20.75 15.5 20.1904 15.5 19.5V18.25ZM20.5591 10.694L19.1119 9.22951C18.6079 8.71948 18.6079 7.89256 19.1119 7.38252C19.6159 6.87249 20.4331 6.87249 20.9371 7.38252L25.5 12L20.9371 16.6175C20.4331 17.1275 19.6159 17.1275 19.1119 16.6175C18.6079 16.1074 18.6079 15.2805 19.1119 14.7705L20.5591 13.306H11.7906C11.0778 13.306 10.5 12.7213 10.5 12C10.5 11.2787 11.0778 10.694 11.7906 10.694H20.5591Z" fill="white"/>
</svg>
