<svg width="503" height="130" viewBox="0 0 503 130" fill="none" xmlns="http://www.w3.org/2000/svg">
<path d="M26.4375 14.3711C29.7383 10.3086 33.4622 7.05013 37.6094 4.5957C41.8411 2.05664 46.4538 0.998698 51.4473 1.42188C56.4408 1.84505 60.7995 4.38411 64.5234 9.03906C68.9245 14.9635 70.4479 21.0573 69.0938 27.3203C67.8242 33.5833 64.735 39.4232 59.8262 44.8398C55.002 50.2565 49.2467 54.4883 42.5605 57.5352C49.416 59.7357 55.1712 63.4173 59.8262 68.5801C64.4811 73.7428 67.1048 79.752 67.6973 86.6074C68.2897 93.3783 65.7083 100.488 59.9531 107.936C56.5677 112.083 52.9707 114.876 49.1621 116.314C45.4382 117.753 41.9681 117.965 38.752 116.949C35.5358 115.934 32.4466 114.283 29.4844 111.998C26.5221 109.713 24.0254 107.174 21.9941 104.381C19.9629 101.673 18.3971 99.0065 17.2969 96.3828C16.7044 103.831 16.4082 109.078 16.4082 112.125C16.3236 113.395 14.4193 114.368 10.6953 115.045C6.46354 115.807 4.05143 115.383 3.45898 113.775C3.37435 113.521 3.33203 113.268 3.33203 113.014C2.73958 111.152 2.18945 103.704 1.68164 90.6699C1.17383 77.5514 1.13151 62.4017 1.55469 45.2207C1.97786 28.0397 3.16276 14.8789 5.10938 5.73828C6.97135 3.28385 9.63737 1.92969 13.1074 1.67578C16.5775 1.42188 19.6667 1.92969 22.375 3.19922C25.168 4.38411 26.6914 5.73828 26.9453 7.26172C26.9453 7.9388 26.776 10.3086 26.4375 14.3711ZM44.4648 9.92773C41.6719 9.8431 38.498 11.0703 34.9434 13.6094C31.4733 16.0638 28.3418 19.153 25.5488 22.877C25.1257 26.9395 23.7715 38.2383 21.4863 56.7734C24.9564 56.8581 29.9922 53.8112 36.5938 47.6328C44.3802 40.2695 49.543 33.0755 52.082 26.0508C55.2135 17.3333 52.6745 11.959 44.4648 9.92773ZM43.1953 104.508C44.6341 102.477 45.6921 99.7682 46.3691 96.3828C47.1309 92.9128 47.2578 89.2311 46.75 85.3379C46.3268 81.4447 45.2689 77.8053 43.5762 74.4199C41.9681 70.9499 39.1751 68.0723 35.1973 65.7871C31.2194 63.4173 26.4375 62.2324 20.8516 62.2324C19.8359 71.373 19.1165 78.1016 18.6934 82.418C18.8626 82.6719 19.2435 83.3066 19.8359 84.3223C20.513 85.2533 21.2324 86.3112 21.9941 87.4961C22.7559 88.5964 23.6022 89.9082 24.5332 91.4316C25.5488 92.9551 26.5645 94.4362 27.5801 95.875C28.6803 97.2292 29.8229 98.5833 31.0078 99.9375C32.1927 101.292 33.3353 102.434 34.4355 103.365C35.5358 104.296 36.5938 105.016 37.6094 105.523C38.7096 106.116 39.7253 106.327 40.6562 106.158C41.6719 105.989 42.5182 105.439 43.1953 104.508ZM99.0547 38.2383C104.556 38.1536 109.084 39.8464 112.639 43.3164C117.463 47.9714 117.674 53.6419 113.273 60.3281C109.042 66.8451 100.705 73.5312 88.2637 80.3867C93.2572 100.699 103.498 95.5788 118.986 65.0254C120.425 62.0632 122.372 58.0007 124.826 52.8379C126.265 49.8757 127.238 47.8867 127.746 46.8711C128.169 46.3633 128.804 46.1517 129.65 46.2363C130.497 46.321 130.962 46.6172 131.047 47.125C128.762 55.5885 125.546 63.9674 121.398 72.2617C117.251 80.4714 112.469 87.7077 107.053 93.9707C101.721 100.234 95.7539 103.111 89.1523 102.604C82.6354 102.096 76.4993 97.1868 70.7441 87.877C69.5592 85.8457 68.7552 83.3066 68.332 80.2598C67.8242 77.1283 67.6973 73.7852 67.9512 70.2305C68.1204 66.6758 68.9245 63.1211 70.3633 59.5664C71.8021 55.9271 73.6641 52.6263 75.9492 49.6641C78.2344 46.6172 81.3659 44.0781 85.3438 42.0469C89.4062 39.931 93.9766 38.6615 99.0547 38.2383ZM105.91 46.1094C103.117 46.0247 100.24 47.9714 97.2773 51.9492C94.3151 55.9271 92.0723 60.0742 90.5488 64.3906C89.0254 68.6224 88.5599 71.3307 89.1523 72.5156C94.4844 70.8229 99.5625 67.099 104.387 61.3438C109.042 55.8424 110.734 51.5684 109.465 48.5215C108.872 47.252 107.688 46.4479 105.91 46.1094ZM135.617 40.0156C137.056 39.5078 138.452 39.2539 139.807 39.2539C141.161 39.1693 142.473 39.4232 143.742 40.0156C145.012 40.5234 146.07 40.9889 146.916 41.4121C147.847 41.8353 148.947 42.6393 150.217 43.8242C151.486 44.9245 152.375 45.7708 152.883 46.3633C153.391 46.8711 154.279 47.8021 155.549 49.1562C156.141 46.3633 157.876 44.3743 160.754 43.1895C163.632 41.9199 166.382 41.7083 169.006 42.5547C171.63 43.401 172.899 45.0091 172.814 47.3789C166.128 75.224 164.986 88.6387 169.387 87.623C173.703 86.6921 182.336 72.6849 195.285 45.6016C195.37 45.5169 195.666 45.4323 196.174 45.3477C196.682 45.263 197.147 45.263 197.57 45.3477C198.078 45.4323 198.29 45.6862 198.205 46.1094C197.189 49.918 196.301 53.0918 195.539 55.6309C194.862 58.1699 193.846 61.4284 192.492 65.4062C191.138 69.3841 189.826 72.6849 188.557 75.3086C187.287 77.9323 185.679 80.7676 183.732 83.8145C181.87 86.8613 179.924 89.2311 177.893 90.9238C175.861 92.6165 173.492 93.9707 170.783 94.9863C168.16 95.9173 165.367 96.2135 162.404 95.875C158.003 95.2826 154.999 92.7012 153.391 88.1309C150.767 92.9551 147.17 95.9596 142.6 97.1445C138.114 98.2448 133.163 96.9753 127.746 93.3359C124.022 90.1198 121.822 84.5339 121.145 76.5781C120.467 68.5378 121.483 60.8359 124.191 53.4727C126.9 46.0247 130.708 41.5391 135.617 40.0156ZM154.279 56.1387C151.74 53.1764 149.286 51.8646 146.916 52.2031C144.631 52.2031 142.642 54.5306 140.949 59.1855C139.341 63.7559 138.495 68.5801 138.41 73.6582C138.41 78.7363 139.003 83.0527 140.188 86.6074C141.457 88.1309 143.234 87.0729 145.52 83.4336C147.805 79.7096 150.09 75.0124 152.375 69.3418C152.967 64.4329 153.602 60.0319 154.279 56.1387ZM188.684 22.75C196.047 21.3958 200.66 22.75 202.521 26.8125C204.468 30.875 202.86 37.4342 197.697 46.4902C200.406 46.1517 203.833 44.9668 207.98 42.9355C212.128 40.8197 214.921 39.127 216.359 37.8574C217.629 36.7572 219.068 36.1647 220.676 36.0801C222.284 35.9108 223.765 36.1224 225.119 36.7148C226.558 37.3073 227.87 37.9844 229.055 38.7461C230.24 39.4232 231.171 40.1003 231.848 40.7773C232.525 41.4544 232.821 41.8353 232.736 41.9199C232.99 42.2585 231.678 46.1094 228.801 53.4727C226.008 60.7513 223.553 68.1146 221.438 75.5625C219.322 82.9258 219.195 87.1152 221.057 88.1309C224.188 89.9928 228.251 88.0885 233.244 82.418C238.238 76.6628 242.596 70.2305 246.32 63.1211C250.044 56.0117 252.541 50.3835 253.811 46.2363C254.149 45.5592 254.911 45.5169 256.096 46.1094C256.35 46.2786 256.519 46.4056 256.604 46.4902C256.35 51.3145 254.657 57.4082 251.525 64.7715C248.394 72.0501 244.416 78.821 239.592 85.084C234.768 91.347 229.478 95.8327 223.723 98.541C217.967 101.249 212.382 100.403 206.965 96.002C205.526 94.2246 204.722 91.4316 204.553 87.623C204.383 83.7298 204.722 79.5404 205.568 75.0547C206.499 70.569 207.473 66.2526 208.488 62.1055C209.589 57.9583 210.604 54.1921 211.535 50.8066C212.551 47.4212 213.101 45.39 213.186 44.7129C210.139 46.2363 207.938 47.2943 206.584 47.8867C205.314 48.4792 203.368 49.1986 200.744 50.0449C198.205 50.8913 195.878 51.2298 193.762 51.0605C191.73 50.8066 189.657 50.1296 187.541 49.0293C184.663 47.0827 182.717 44.2051 181.701 40.3965C180.601 36.5033 180.686 32.8216 181.955 29.3516C183.225 25.8815 185.467 23.681 188.684 22.75ZM196.682 29.6055C194.82 29.5208 193.339 30.6634 192.238 33.0332C191.053 35.403 190.546 37.9844 190.715 40.7773C190.884 43.4857 191.646 45.3053 193 46.2363C193.085 45.8132 193.423 44.9245 194.016 43.5703C194.608 42.1315 195.201 40.6927 195.793 39.2539C196.385 37.8151 196.893 36.3763 197.316 34.9375C197.824 33.4141 198.036 32.1868 197.951 31.2559C197.867 30.2402 197.443 29.6901 196.682 29.6055ZM258.635 7.64258C281.232 6.71159 309.797 7.34635 344.328 9.54688C347.036 12.8477 348.01 16.1061 347.248 19.3223C346.571 22.4538 345.174 24.2734 343.059 24.7812C335.018 24.5273 324.27 24.0618 310.812 23.3848C310.22 29.0553 308.993 38.5768 307.131 51.9492C305.354 65.237 303.83 77.3398 302.561 88.2578C301.291 99.0911 300.656 107.132 300.656 112.379C300.656 113.902 299.556 115.13 297.355 116.061C295.155 116.992 292.954 117.203 290.754 116.695C288.553 116.272 287.453 115.13 287.453 113.268C286.607 110.39 286.099 99.0065 285.93 79.1172C285.76 59.1432 286.522 40.2272 288.215 22.3691C274.25 21.7767 264.644 21.4805 259.396 21.4805C256.096 21.6497 254.022 20.5918 253.176 18.3066C252.329 15.9368 252.541 13.5671 253.811 11.1973C255.08 8.82747 256.688 7.64258 258.635 7.64258ZM335.061 22.75C342.424 21.3958 347.036 22.75 348.898 26.8125C350.845 30.875 349.237 37.4342 344.074 46.4902C346.783 46.1517 350.21 44.9668 354.357 42.9355C358.505 40.8197 361.298 39.127 362.736 37.8574C364.006 36.7572 365.445 36.1647 367.053 36.0801C368.661 35.9108 370.142 36.1224 371.496 36.7148C372.935 37.3073 374.247 37.9844 375.432 38.7461C376.617 39.4232 377.548 40.1003 378.225 40.7773C378.902 41.4544 379.198 41.8353 379.113 41.9199C379.367 42.2585 378.055 46.1094 375.178 53.4727C372.385 60.7513 369.93 68.1146 367.814 75.5625C365.699 82.9258 365.572 87.1152 367.434 88.1309C370.565 89.9928 374.628 88.0885 379.621 82.418C384.615 76.6628 388.973 70.2305 392.697 63.1211C396.421 56.0117 398.918 50.3835 400.188 46.2363C400.526 45.5592 401.288 45.5169 402.473 46.1094C402.727 46.2786 402.896 46.4056 402.98 46.4902C402.727 51.3145 401.034 57.4082 397.902 64.7715C394.771 72.0501 390.793 78.821 385.969 85.084C381.145 91.347 375.855 95.8327 370.1 98.541C364.344 101.249 358.758 100.403 353.342 96.002C351.903 94.2246 351.099 91.4316 350.93 87.623C350.76 83.7298 351.099 79.5404 351.945 75.0547C352.876 70.569 353.85 66.2526 354.865 62.1055C355.965 57.9583 356.981 54.1921 357.912 50.8066C358.928 47.4212 359.478 45.39 359.562 44.7129C356.516 46.2363 354.315 47.2943 352.961 47.8867C351.691 48.4792 349.745 49.1986 347.121 50.0449C344.582 50.8913 342.255 51.2298 340.139 51.0605C338.107 50.8066 336.034 50.1296 333.918 49.0293C331.04 47.0827 329.094 44.2051 328.078 40.3965C326.978 36.5033 327.062 32.8216 328.332 29.3516C329.602 25.8815 331.844 23.681 335.061 22.75ZM343.059 29.6055C341.197 29.5208 339.715 30.6634 338.615 33.0332C337.43 35.403 336.923 37.9844 337.092 40.7773C337.261 43.4857 338.023 45.3053 339.377 46.2363C339.462 45.8132 339.8 44.9245 340.393 43.5703C340.985 42.1315 341.577 40.6927 342.17 39.2539C342.762 37.8151 343.27 36.3763 343.693 34.9375C344.201 33.4141 344.413 32.1868 344.328 31.2559C344.243 30.2402 343.82 29.6901 343.059 29.6055ZM407.043 28.8438C411.275 27.7435 414.152 28.3359 415.676 30.6211C416.438 31.9753 416.48 33.8372 415.803 36.207C415.126 38.4922 413.898 39.8464 412.121 40.2695C410.259 40.7773 408.27 40.862 406.154 40.5234C404.038 40.1003 402.684 39.2539 402.092 37.9844C401.415 36.5456 401.584 34.7682 402.6 32.6523C403.7 30.5365 405.181 29.2669 407.043 28.8438ZM396.887 44.9668C398.241 43.1895 401.626 42.6816 407.043 43.4434C412.544 44.2051 415.38 45.4746 415.549 47.252C415.38 47.929 415.168 48.86 414.914 50.0449C414.66 51.2298 414.279 53.515 413.771 56.9004C413.264 60.2858 412.883 63.502 412.629 66.5488C412.375 69.5957 412.333 72.9811 412.502 76.7051C412.671 80.3444 413.137 83.3913 413.898 85.8457C416.438 92.4473 420.585 88.3424 426.34 73.5312C428.794 67.099 431.714 58.043 435.1 46.3633C435.607 45.6016 436.285 45.1784 437.131 45.0938C437.977 45.0091 438.697 45.1361 439.289 45.4746C439.882 45.8132 440.135 46.1094 440.051 46.3633C439.204 56.0117 436.327 66.5911 431.418 78.1016C425.493 92.0664 419.273 99.8529 412.756 101.461C407.762 102.73 403.065 99.8952 398.664 92.9551C394.094 86.4382 393.12 72.8118 395.744 52.0762L396.887 44.9668ZM468.996 39.2539C480.253 39.2539 483.85 48.5638 479.787 67.1836C486.135 61.4284 492.271 54.2767 498.195 45.7285C498.534 45.3053 499.084 45.1361 499.846 45.2207C500.607 45.2207 501.285 45.4746 501.877 45.9824C502.469 46.4902 502.596 46.998 502.258 47.5059C495.233 59.6087 486.981 69.2148 477.502 76.3242C473.947 87.8346 470.308 94.9863 466.584 97.7793C463.791 100.572 460.194 101.546 455.793 100.699C451.477 99.8529 448.472 97.9486 446.779 94.9863C445.171 92.0241 445.552 88.7233 447.922 85.084C449.445 83.3066 453.339 81.6562 459.602 80.1328C464.68 70.0612 467.261 62.1901 467.346 56.5195C467.346 53.0495 466.076 51.4414 463.537 51.6953C462.521 51.526 461.464 51.653 460.363 52.0762C459.263 52.4993 458.205 53.2188 457.189 54.2344C456.258 55.25 455.37 56.3079 454.523 57.4082C453.677 58.5085 452.788 59.9049 451.857 61.5977C450.926 63.2057 450.165 64.6022 449.572 65.7871C448.98 66.8874 448.26 68.2839 447.414 69.9766C446.652 71.5846 446.102 72.6849 445.764 73.2773C445.679 80.556 445.637 96.679 445.637 121.646C445.721 124.609 444.621 126.598 442.336 127.613C440.135 128.629 437.893 128.714 435.607 127.867C433.322 127.021 432.222 125.836 432.307 124.312C430.952 117.288 430.021 107.343 429.514 94.4785C428.921 81.5293 428.71 70.0612 428.879 60.0742C429.048 50.0872 429.387 44.332 429.895 42.8086C429.556 41.793 430.529 40.8197 432.814 39.8887C436.708 38.2806 440.347 38.196 443.732 39.6348C445.34 40.3118 446.568 41.3698 447.414 42.8086C446.737 43.4857 446.271 49.2409 446.018 60.0742C448.811 53.6419 452.196 48.5638 456.174 44.8398C460.236 41.1159 464.51 39.2539 468.996 39.2539ZM455.158 87.877C452.704 88.6387 451.138 89.2311 450.461 89.6543C449.868 90.0775 449.953 90.6276 450.715 91.3047C451.053 91.8125 451.604 91.7702 452.365 91.1777C453.127 90.5007 454.058 89.4004 455.158 87.877Z" fill="white"/>
</svg>
