<svg width="390" height="251" viewBox="0 0 390 251" fill="none" xmlns="http://www.w3.org/2000/svg">
<path d="M64.7463 75.6811C62.3362 76.1966 60.2718 77.62 58.9336 79.6896C57.5954 81.7593 57.1422 84.2259 57.6587 86.6358C58.1752 89.0457 59.5996 91.1099 61.7389 92.4932L75.2781 100.738L74.0976 132.128C74.0577 133.197 74.583 134.209 75.4824 134.79L81.1658 138.467C81.9444 138.971 82.9127 139.091 83.7912 138.792C84.67 138.494 85.3644 137.809 85.6747 136.934L94.3985 112.381L109.063 121.309L111.65 131.235C111.953 132.399 112.917 133.274 114.104 133.466C115.292 133.658 116.481 133.128 117.135 132.118L130.61 111.291C131.055 110.603 131.195 109.779 131.029 109.005C130.952 108.644 130.809 108.294 130.597 107.974C129.936 106.97 128.743 106.449 127.557 106.65L117.439 108.357L103.232 98.6043L122.105 80.6256C122.778 79.9847 123.12 79.0702 123.034 78.1451C122.944 77.2186 122.441 76.3847 121.66 75.8795L115.977 72.2024C115.084 71.6239 113.953 71.5559 112.996 72.0229L84.6667 85.8624L71.6917 76.9572C69.6231 75.6188 67.1562 75.1645 64.7463 75.6811ZM68.325 82.0081L82.6917 91.8691C83.5932 92.4881 84.759 92.5735 85.7418 92.0948L114.119 78.2315L115.132 78.8857L96.7037 96.44C96.5319 96.6041 96.3781 96.7891 96.2493 96.9895L95.978 97.4088C95.5234 98.1116 95.3954 98.9337 95.5582 99.6934C95.7153 100.426 96.1427 101.103 96.8078 101.56L114.766 113.883C114.73 113.86 114.694 113.835 114.689 113.831C114.778 113.902 114.869 113.973 114.965 114.04C115.618 114.5 116.428 114.684 117.217 114.551L121.769 113.783L115.786 123.031L114.623 118.568C114.419 117.789 113.914 117.122 113.22 116.714C113.131 116.662 113.041 116.615 112.926 116.556L94.4033 105.278C92.9989 104.422 91.1693 104.841 90.2762 106.222L90.1783 106.373C90.05 106.571 89.9454 106.783 89.8667 107.005L81.2397 131.285L80.2282 130.631L81.4103 99.186C81.4504 98.0889 80.895 97.0521 79.9559 96.4795L64.9643 87.3526C63.5467 86.4354 63.1132 84.403 64.0288 82.9879C64.4866 82.2803 65.1925 81.7938 66.0166 81.6171C66.8406 81.4405 67.6851 81.5958 68.325 82.0081Z" fill="white"/>
<path d="M-144.092 42.2318L-143.483 45.1692L-144.092 42.2318ZM-302.791 167.731C-301.956 166.3 -302.438 164.463 -303.869 163.627C-305.3 162.792 -307.137 163.274 -307.973 164.705L-302.791 167.731ZM-302.282 155.477C-303.182 156.868 -302.784 158.725 -301.392 159.625C-300.001 160.525 -298.144 160.127 -297.244 158.735L-302.282 155.477ZM-291.321 149.95C-290.37 148.593 -290.698 146.722 -292.054 145.771C-293.411 144.82 -295.282 145.148 -296.233 146.505L-291.321 149.95ZM-289.85 137.737C-290.848 139.059 -290.586 140.941 -289.264 141.939C-287.941 142.938 -286.06 142.675 -285.062 141.353L-289.85 137.737ZM-278.489 132.957C-277.445 131.67 -277.642 129.781 -278.929 128.737C-280.216 127.693 -282.105 127.89 -283.149 129.177L-278.489 132.957ZM-276.206 120.911C-277.293 122.161 -277.161 124.056 -275.911 125.144C-274.661 126.231 -272.766 126.099 -271.679 124.849L-276.206 120.911ZM-264.545 116.934C-263.414 115.723 -263.479 113.825 -264.689 112.694C-265.9 111.563 -267.799 111.628 -268.93 112.839L-264.545 116.934ZM-261.409 105.072C-262.583 106.241 -262.587 108.141 -261.418 109.314C-260.249 110.488 -258.349 110.492 -257.175 109.323L-261.409 105.072ZM-249.509 101.967C-248.293 100.842 -248.218 98.9445 -249.342 97.7276C-250.467 96.5107 -252.365 96.4358 -253.581 97.5603L-249.509 101.967ZM-245.464 90.3447C-246.723 91.421 -246.872 93.3147 -245.796 94.5744C-244.719 95.834 -242.826 95.9827 -241.566 94.9064L-245.464 90.3447ZM-233.376 88.1878C-232.074 87.1631 -231.85 85.277 -232.874 83.975C-233.899 82.673 -235.785 82.4481 -237.087 83.4728L-233.376 88.1878ZM-228.421 76.941C-229.765 77.9101 -230.069 79.7851 -229.1 81.129C-228.131 82.4729 -226.256 82.7768 -224.912 81.8078L-228.421 76.941ZM-216.18 75.7959C-214.795 74.8866 -214.409 73.0266 -215.318 71.6416C-216.228 70.2565 -218.088 69.8709 -219.473 70.7801L-216.18 75.7959ZM-210.251 65.0202C-211.676 65.8655 -212.146 67.7059 -211.3 69.1309C-210.455 70.5559 -208.615 71.0259 -207.19 70.1806L-210.251 65.0202ZM-197.956 64.9926C-196.492 64.2155 -195.936 62.3994 -196.713 60.936C-197.49 59.4726 -199.306 58.9163 -200.77 59.6933L-197.956 64.9926ZM-191.051 54.8316C-192.55 55.5363 -193.195 57.3232 -192.49 58.8227C-191.785 60.3222 -189.999 60.9666 -188.499 60.2619L-191.051 54.8316ZM-178.821 56.0067C-177.288 55.3783 -176.555 53.6261 -177.183 52.093C-177.811 50.56 -179.564 49.8265 -181.097 50.4549L-178.821 56.0067ZM-170.928 46.5891C-172.491 47.1376 -173.314 48.8496 -172.765 50.413C-172.217 51.9765 -170.505 52.7993 -168.941 52.2509L-170.928 46.5891ZM-158.881 49.0155C-157.291 48.55 -156.38 46.8836 -156.845 45.2935C-157.311 43.7034 -158.977 42.7917 -160.567 43.2572L-158.881 49.0155ZM-150.042 40.4778C-151.655 40.8579 -152.654 42.4734 -152.274 44.0861C-151.894 45.6987 -150.278 46.6979 -148.666 46.3177L-150.042 40.4778ZM-138.027 44.0992C-136.398 43.7981 -135.321 42.2333 -135.623 40.604C-135.924 38.9747 -137.489 37.898 -139.118 38.1991L-138.027 44.0992ZM-127.943 36.3846C-129.584 36.6145 -130.728 38.131 -130.498 39.7718C-130.268 41.4127 -128.751 42.5564 -127.111 42.3265L-127.943 36.3846ZM-116.13 41.0302C-114.48 40.8717 -113.272 39.4062 -113.43 37.757C-113.589 36.1077 -115.054 34.8992 -116.704 35.0578L-116.13 41.0302ZM-105.423 34.2188C-107.078 34.3061 -108.348 35.7181 -108.261 37.3727C-108.173 39.0272 -106.761 40.2977 -105.107 40.2104L-105.423 34.2188ZM-94.0456 39.8641C-92.3888 39.8475 -91.0591 38.4911 -91.0756 36.8343C-91.0922 35.1775 -92.4486 33.8478 -94.1054 33.8644L-94.0456 39.8641ZM-82.7735 33.9912C-84.4295 33.9378 -85.8153 35.2369 -85.8687 36.8929C-85.9222 38.5489 -84.6231 39.9347 -82.9671 39.9881L-82.7735 33.9912ZM-71.9106 40.576C-70.2582 40.6982 -68.8196 39.4578 -68.6974 37.8055C-68.5751 36.1531 -69.8155 34.7146 -71.4678 34.5923L-71.9106 40.576ZM-60.2132 35.6571C-61.8592 35.4675 -63.3472 36.6481 -63.5368 38.2941C-63.7264 39.9401 -62.5458 41.4281 -60.8999 41.6177L-60.2132 35.6571ZM-49.9266 43.1063C-48.2895 43.3619 -46.7553 42.242 -46.4997 40.605C-46.2442 38.968 -47.3641 37.4337 -49.0011 37.1781L-49.9266 43.1063ZM-37.848 39.1464C-39.4736 38.8264 -41.0509 39.8848 -41.3709 41.5104C-41.691 43.1361 -40.6326 44.7134 -39.0069 45.0334L-37.848 39.1464ZM-28.205 47.3786C-26.593 47.7613 -24.9759 46.7648 -24.5932 45.1528C-24.2104 43.5407 -25.207 41.9236 -26.819 41.5409L-28.205 47.3786ZM-15.8419 44.3712C-17.438 43.9269 -19.0922 44.8606 -19.5365 46.4568C-19.9808 48.053 -19.0471 49.7071 -17.4509 50.1514L-15.8419 44.3712ZM-6.86222 53.3162C-5.284 53.8206 -3.59573 52.9501 -3.09132 51.3719C-2.58694 49.7937 -3.45742 48.1054 -5.03565 47.601L-6.86222 53.3162ZM5.69242 51.2554C4.1345 50.6915 2.4144 51.4973 1.85043 53.0552C1.2865 54.6131 2.09228 56.3332 3.6502 56.8972L5.69242 51.2554ZM14.0032 60.8702C15.5383 61.4935 17.2881 60.7543 17.9114 59.2191C18.5347 57.684 17.7954 55.9342 16.2603 55.311L14.0032 60.8702ZM26.6571 59.7722C25.1478 59.0885 23.3702 59.7578 22.6865 61.267C22.0029 62.7763 22.6721 64.554 24.1814 65.2376L26.6571 59.7722ZM34.1423 70.0042C35.6209 70.7519 37.4256 70.1593 38.1732 68.6808C38.9209 67.2022 38.3284 65.3975 36.8498 64.6498L34.1423 70.0042ZM46.8838 70.0435C45.447 69.2183 43.6134 69.714 42.7881 71.1507C41.963 72.5875 42.4587 74.4211 43.8954 75.2463L46.8838 70.0435ZM-308 170.889C-305.337 172.271 -305.337 172.271 -305.337 172.271C-305.337 172.271 -305.337 172.271 -305.337 172.272C-305.337 172.272 -305.338 172.272 -305.338 172.272C-305.338 172.272 -305.338 172.272 -305.338 172.272C-305.337 172.272 -305.337 172.271 -305.337 172.27C-305.336 172.268 -305.334 172.264 -305.331 172.259C-305.325 172.249 -305.317 172.232 -305.304 172.208C-305.28 172.161 -305.241 172.089 -305.19 171.992C-305.086 171.798 -304.928 171.505 -304.716 171.119C-304.291 170.346 -303.65 169.201 -302.791 167.731L-307.973 164.705C-308.859 166.223 -309.526 167.413 -309.975 168.23C-310.199 168.638 -310.368 168.952 -310.483 169.167C-310.54 169.275 -310.584 169.357 -310.614 169.414C-310.629 169.443 -310.641 169.465 -310.649 169.48C-310.653 169.488 -310.656 169.494 -310.658 169.499C-310.66 169.501 -310.661 169.503 -310.661 169.505C-310.662 169.505 -310.662 169.506 -310.662 169.506C-310.662 169.507 -310.663 169.507 -310.663 169.507C-310.663 169.507 -310.663 169.507 -310.663 169.507C-310.663 169.508 -310.663 169.508 -308 170.889ZM-297.244 158.735C-295.538 156.098 -293.564 153.148 -291.321 149.95L-296.233 146.505C-298.521 149.767 -300.538 152.78 -302.282 155.477L-297.244 158.735ZM-285.062 141.353C-283.024 138.654 -280.833 135.846 -278.489 132.957L-283.149 129.177C-285.538 132.123 -287.772 134.986 -289.85 137.737L-285.062 141.353ZM-271.679 124.849C-269.414 122.246 -267.036 119.602 -264.545 116.934L-268.93 112.839C-271.471 115.56 -273.896 118.257 -276.206 120.911L-271.679 124.849ZM-257.175 109.323C-254.713 106.871 -252.158 104.414 -249.509 101.967L-253.581 97.5603C-256.287 100.06 -258.896 102.569 -261.409 105.072L-257.175 109.323ZM-241.566 94.9064C-238.918 92.6434 -236.188 90.4002 -233.376 88.1878L-237.087 83.4728C-239.964 85.7367 -242.756 88.0312 -245.464 90.3447L-241.566 94.9064ZM-224.912 81.8078C-222.075 79.7624 -219.164 77.7552 -216.18 75.7959L-219.473 70.7801C-222.533 72.789 -225.515 74.846 -228.421 76.941L-224.912 81.8078ZM-207.19 70.1806C-204.18 68.3953 -201.102 66.6631 -197.956 64.9926L-200.77 59.6933C-204.001 61.4093 -207.162 63.188 -210.251 65.0202L-207.19 70.1806ZM-188.499 60.2619C-185.336 58.7758 -182.11 57.3548 -178.821 56.0067L-181.097 50.4549C-184.481 51.842 -187.799 53.3036 -191.051 54.8316L-188.499 60.2619ZM-168.941 52.2509C-165.647 51.0952 -162.294 50.0145 -158.881 49.0155L-160.567 43.2572C-164.082 44.2862 -167.536 45.3992 -170.928 46.5891L-168.941 52.2509ZM-148.666 46.3177C-146.952 45.9137 -145.224 45.5306 -143.483 45.1692L-144.702 39.2943C-146.496 39.6668 -148.277 40.0615 -150.042 40.4778L-148.666 46.3177ZM-143.483 45.1692C-141.657 44.7904 -139.839 44.434 -138.027 44.0992L-139.118 38.1991C-140.972 38.5418 -142.834 38.9067 -144.702 39.2943L-143.483 45.1692ZM-127.111 42.3265C-123.417 41.8089 -119.756 41.3787 -116.13 41.0302L-116.704 35.0578C-120.415 35.4145 -124.162 35.8548 -127.943 36.3846L-127.111 42.3265ZM-105.107 40.2104C-101.377 40.0136 -97.6889 39.9004 -94.0456 39.8641L-94.1054 33.8644C-97.8327 33.9015 -101.606 34.0174 -105.423 34.2188L-105.107 40.2104ZM-82.9671 39.9881C-79.2272 40.1088 -75.5405 40.3074 -71.9106 40.576L-71.4678 34.5923C-75.1789 34.3177 -78.9487 34.1147 -82.7735 33.9912L-82.9671 39.9881ZM-60.8999 41.6177C-57.1724 42.0471 -53.5132 42.5464 -49.9266 43.1063L-49.0011 37.1781C-52.665 36.6062 -56.4039 36.0959 -60.2132 35.6571L-60.8999 41.6177ZM-39.0069 45.0334C-35.3151 45.7602 -31.7127 46.5458 -28.205 47.3786L-26.819 41.5409C-30.3998 40.6907 -34.078 39.8885 -37.848 39.1464L-39.0069 45.0334ZM-17.4509 50.1514C-13.7955 51.169 -10.2635 52.2292 -6.86222 53.3162L-5.03565 47.601C-8.50666 46.4917 -12.1112 45.4097 -15.8419 44.3712L-17.4509 50.1514ZM3.6502 56.8972C7.29576 58.2168 10.7507 59.5497 14.0032 60.8702L16.2603 55.311C12.9395 53.9627 9.41294 52.6022 5.69242 51.2554L3.6502 56.8972ZM24.1814 65.2376C27.8965 66.9205 31.2262 68.5297 34.1423 70.0042L36.8498 64.6498C33.8612 63.1387 30.4542 61.4922 26.6571 59.7722L24.1814 65.2376ZM43.8954 75.2463C45.4214 76.1228 46.5809 76.821 47.3534 77.2964C47.7397 77.5341 48.0291 77.7161 48.2193 77.8369C48.3144 77.8973 48.3846 77.9424 48.4297 77.9715C48.4522 77.986 48.4684 77.9965 48.4784 78.003C48.4833 78.0062 48.4867 78.0084 48.4885 78.0095C48.4894 78.0101 48.4899 78.0105 48.49 78.0105C48.49 78.0106 48.49 78.0105 48.4898 78.0104C48.4897 78.0104 48.4896 78.0103 48.4895 78.0102C48.4895 78.0102 48.4893 78.0101 48.4893 78.0101C48.4892 78.01 48.4891 78.0099 50.1319 75.4998C51.7748 72.9896 51.7747 72.9895 51.7745 72.9894C51.7744 72.9894 51.7743 72.9893 51.7742 72.9892C51.774 72.989 51.7737 72.9889 51.7734 72.9887C51.7729 72.9883 51.7722 72.9879 51.7715 72.9874C51.77 72.9864 51.7681 72.9852 51.7658 72.9837C51.7612 72.9807 51.755 72.9767 51.7473 72.9716C51.7317 72.9615 51.7098 72.9473 51.6815 72.9291C51.625 72.8927 51.5432 72.8402 51.4364 72.7723C51.2228 72.6366 50.9092 72.4395 50.4983 72.1866C49.6763 71.6808 48.4647 70.9515 46.8838 70.0435L43.8954 75.2463Z" fill="white"/>
<path d="M259.546 199.765L260.668 196.983L259.546 199.765ZM382.405 227.964C380.772 227.682 379.22 228.777 378.938 230.409C378.656 232.042 379.751 233.594 381.384 233.876L382.405 227.964ZM364.739 230.85C366.367 231.16 367.938 230.091 368.248 228.464C368.557 226.836 367.489 225.266 365.862 224.956L364.739 230.85ZM349.37 221.676C347.748 221.34 346.16 222.382 345.824 224.004C345.487 225.627 346.529 227.215 348.152 227.551L349.37 221.676ZM331.622 223.972C333.238 224.337 334.845 223.323 335.21 221.707C335.576 220.091 334.562 218.485 332.946 218.119L331.622 223.972ZM316.601 214.249C314.993 213.85 313.366 214.83 312.966 216.439C312.567 218.047 313.548 219.674 315.156 220.073L316.601 214.249ZM298.767 215.791C300.365 216.231 302.016 215.293 302.457 213.696C302.897 212.098 301.959 210.447 300.362 210.006L298.767 215.791ZM284.277 205.296C282.696 204.802 281.013 205.684 280.52 207.265C280.026 208.847 280.908 210.529 282.489 211.023L284.277 205.296ZM266.372 205.595C267.928 206.163 269.651 205.362 270.219 203.806C270.788 202.25 269.987 200.527 268.431 199.959L266.372 205.595ZM254.33 194.321C252.811 193.658 251.043 194.352 250.381 195.871C249.719 197.39 250.413 199.158 251.931 199.82L254.33 194.321ZM239.15 193.898C240.639 194.625 242.435 194.007 243.162 192.518C243.889 191.029 243.271 189.233 241.782 188.506L239.15 193.898ZM229.435 182.225C227.969 181.451 226.154 182.012 225.381 183.477C224.608 184.943 225.169 186.757 226.634 187.531L229.435 182.225ZM214.314 180.826C215.759 181.635 217.587 181.119 218.397 179.673C219.206 178.227 218.69 176.399 217.244 175.59L214.314 180.826ZM205.193 168.681C203.764 167.843 201.926 168.322 201.088 169.751C200.25 171.181 200.729 173.019 202.159 173.857L205.193 168.681ZM190.136 166.665C191.551 167.528 193.397 167.08 194.259 165.665C195.121 164.25 194.673 162.404 193.259 161.542L190.136 166.665ZM181.445 154.217C180.044 153.334 178.191 153.754 177.308 155.156C176.424 156.558 176.845 158.41 178.246 159.294L181.445 154.217ZM166.464 151.754C167.854 152.657 169.712 152.262 170.614 150.872C171.517 149.483 171.122 147.625 169.732 146.722L166.464 151.754ZM158.109 139.064C156.731 138.143 154.868 138.514 153.948 139.891C153.027 141.269 153.397 143.132 154.775 144.052L158.109 139.064ZM143.173 136.18C144.537 137.12 146.405 136.777 147.346 135.413C148.286 134.049 147.943 132.181 146.579 131.24L143.173 136.18ZM390.183 232.301C390.645 229.337 390.645 229.337 390.645 229.337C390.645 229.337 390.645 229.337 390.645 229.337C390.645 229.337 390.645 229.337 390.645 229.337C390.645 229.337 390.644 229.337 390.644 229.336C390.642 229.336 390.64 229.336 390.638 229.336C390.632 229.335 390.624 229.333 390.612 229.332C390.59 229.328 390.556 229.323 390.51 229.315C390.418 229.301 390.281 229.279 390.1 229.25C389.737 229.192 389.197 229.105 388.493 228.99C387.086 228.759 385.022 228.416 382.405 227.964L381.384 233.876C384.019 234.331 386.1 234.678 387.523 234.911C388.235 235.028 388.782 235.116 389.153 235.175C389.338 235.205 389.479 235.227 389.574 235.242C389.621 235.249 389.658 235.255 389.682 235.259C389.694 235.261 389.703 235.262 389.71 235.263C389.713 235.264 389.715 235.264 389.717 235.264C389.718 235.265 389.719 235.265 389.719 235.265C389.719 235.265 389.719 235.265 389.72 235.265C389.72 235.265 389.72 235.265 389.72 235.265C389.72 235.265 389.72 235.265 390.183 232.301ZM365.862 224.956C360.87 224.005 355.313 222.909 349.37 221.676L348.152 227.551C354.13 228.791 359.719 229.894 364.739 230.85L365.862 224.956ZM332.946 218.119C327.617 216.914 322.135 215.623 316.601 214.249L315.156 220.073C320.735 221.457 326.258 222.759 331.622 223.972L332.946 218.119ZM300.362 210.006C294.924 208.508 289.531 206.936 284.277 205.296L282.489 211.023C287.816 212.686 293.274 214.277 298.767 215.791L300.362 210.006ZM268.431 199.959C265.765 198.985 263.172 197.992 260.668 196.983L258.424 202.548C260.996 203.584 263.65 204.6 266.372 205.595L268.431 199.959ZM260.668 196.983C258.589 196.145 256.474 195.256 254.33 194.321L251.931 199.82C254.123 200.776 256.289 201.687 258.424 202.548L260.668 196.983ZM241.782 188.506C237.706 186.516 233.577 184.411 229.435 182.225L226.634 187.531C230.825 189.743 235.011 191.877 239.15 193.898L241.782 188.506ZM217.244 175.59C213.189 173.321 209.159 171.006 205.193 168.681L202.159 173.857C206.156 176.201 210.22 178.535 214.314 180.826L217.244 175.59ZM193.259 161.542C189.188 159.061 185.234 156.605 181.445 154.217L178.246 159.294C182.058 161.696 186.037 164.167 190.136 166.665L193.259 161.542ZM169.732 146.722C165.489 143.966 161.584 141.386 158.109 139.064L154.775 144.052C158.269 146.388 162.196 148.982 166.464 151.754L169.732 146.722ZM146.579 131.24C144.766 129.99 143.352 129.004 142.393 128.331C141.913 127.995 141.547 127.737 141.301 127.564C141.178 127.477 141.086 127.411 141.024 127.368C140.993 127.346 140.97 127.33 140.955 127.319C140.947 127.313 140.942 127.309 140.938 127.307C140.936 127.305 140.935 127.305 140.934 127.304C140.934 127.304 140.933 127.303 140.933 127.303C140.933 127.303 140.933 127.303 140.933 127.303C140.933 127.303 140.933 127.303 140.933 127.303C140.933 127.303 140.933 127.303 139.195 129.748C137.456 132.193 137.456 132.193 137.456 132.193C137.456 132.193 137.456 132.193 137.456 132.193C137.456 132.193 137.457 132.193 137.457 132.194C137.457 132.194 137.458 132.194 137.458 132.194C137.459 132.195 137.461 132.196 137.463 132.198C137.467 132.201 137.474 132.206 137.482 132.211C137.498 132.223 137.523 132.24 137.555 132.263C137.619 132.309 137.715 132.376 137.84 132.465C138.091 132.642 138.463 132.904 138.949 133.245C139.92 133.925 141.347 134.92 143.173 136.18L146.579 131.24Z" fill="white"/>
</svg>
