<svg width="263" height="208" viewBox="0 0 263 208" fill="none" xmlns="http://www.w3.org/2000/svg">
<rect width="263" height="208" rx="6" fill="#F8F8F8"/>
<path d="M178.461 43.7766C178.461 41.8743 176.913 40.3267 175.011 40.3267H145.2C143.298 40.3267 141.75 41.8743 141.75 43.7766V49.358H178.461V43.7766H178.461Z" fill="#D3D3D3"/>
<path d="M110.921 119.621C124.916 119.621 136.302 108.235 136.302 94.2391C136.302 80.2436 124.916 68.8574 110.921 68.8574C96.9252 68.8574 85.5391 80.2436 85.5391 94.2391C85.5391 108.235 96.9252 119.621 110.921 119.621ZM98.4552 81.7736C105.329 74.901 116.513 74.901 123.386 81.7736C126.715 85.1034 128.549 89.5306 128.549 94.2391C128.549 98.9477 126.716 103.375 123.386 106.704C120.056 110.033 115.629 111.867 110.921 111.867C106.212 111.867 101.785 110.034 98.4556 106.704C95.1262 103.374 93.2922 98.9473 93.2922 94.2391C93.2918 89.5306 95.1258 85.1034 98.4552 81.7736Z" fill="#D3D3D3"/>
<path d="M141.749 94.2389C141.749 101.11 139.487 107.463 135.672 112.594H188.999V75.8838H135.672C139.487 81.0153 141.749 87.3675 141.749 94.2389Z" fill="#D3D3D3"/>
<path d="M80.0924 94.2388C80.0924 87.3674 82.354 81.0148 86.1693 75.8833H75V112.594H86.1689C82.3536 107.462 80.0924 101.11 80.0924 94.2388Z" fill="#D3D3D3"/>
<path d="M119.535 102.852C121.836 100.552 123.103 97.4929 123.103 94.2391C123.103 90.9853 121.836 87.9261 119.535 85.6254C117.234 83.3243 114.176 82.0576 110.922 82.0576C107.668 82.0576 104.609 83.3243 102.308 85.6254C100.007 87.9261 98.7402 90.9849 98.7402 94.2391C98.7402 97.4925 100.007 100.552 102.308 102.852C107.058 107.602 114.785 107.602 119.535 102.852Z" fill="#D3D3D3"/>
<path d="M182.726 54.8047H81.2738C77.8143 54.8047 75 57.619 75 61.0785V70.4365H91.3507C96.6777 66.0488 103.497 63.4103 110.921 63.4103C118.345 63.4103 125.164 66.0488 130.491 70.4365H189V61.0785C189 57.619 186.186 54.8047 182.726 54.8047ZM171.922 65.4508H150.843C149.339 65.4508 148.12 64.2314 148.12 62.7271C148.12 61.2228 149.339 60.0034 150.843 60.0034H171.922C173.427 60.0034 174.646 61.2228 174.646 62.7271C174.646 64.2314 173.427 65.4508 171.922 65.4508Z" fill="#D3D3D3"/>
<path d="M110.921 125.068C103.497 125.068 96.6777 122.43 91.3504 118.042H75V127.399C75 130.859 77.8143 133.673 81.2738 133.673H182.726C186.186 133.673 189 130.859 189 127.399V118.042H130.492C125.165 122.429 118.345 125.068 110.921 125.068Z" fill="#D3D3D3"/>
</svg>
