<svg width="23" height="22" viewBox="0 0 23 22" fill="none" xmlns="http://www.w3.org/2000/svg">
<g clip-path="url(#clip0_47_1472)">
<path d="M20.4221 2.75195H1.8103C0.877392 2.75195 0.116211 3.51314 0.116211 4.44605V17.5532C0.116211 18.4861 0.877392 19.2473 1.8103 19.2473H20.4221C21.355 19.2473 22.1162 18.4861 22.1162 17.5532V4.44605C22.1162 3.51314 21.355 2.75195 20.4221 2.75195ZM20.1761 4.00512L11.2322 11.6541L2.28836 4.00512H20.1761ZM20.863 17.5532C20.863 17.7946 20.6635 17.9942 20.4221 17.9942H1.8103C1.56895 17.9942 1.36938 17.7946 1.36938 17.5532V4.86841L10.8238 12.9536C10.8284 12.9583 10.8377 12.9629 10.8424 12.9676C10.847 12.9722 10.8563 12.9769 10.8609 12.9815C10.8749 12.9908 10.8841 13.0001 10.8981 13.0047C10.9027 13.0093 10.9074 13.0093 10.912 13.014C10.9306 13.0233 10.9491 13.0326 10.9677 13.0418C10.9723 13.0418 10.977 13.0465 10.9816 13.0465C10.9955 13.0511 11.0095 13.0604 11.028 13.065C11.0327 13.065 11.0419 13.0697 11.0466 13.0697C11.0605 13.0743 11.0744 13.079 11.0884 13.079C11.093 13.079 11.1023 13.0836 11.1069 13.0836C11.1209 13.0882 11.1394 13.0882 11.1533 13.0929C11.158 13.0929 11.1626 13.0929 11.1673 13.0929C11.1858 13.0929 11.209 13.0975 11.2276 13.0975C11.2462 13.0975 11.2694 13.0975 11.2879 13.0929C11.2926 13.0929 11.2972 13.0929 11.3019 13.0929C11.3158 13.0929 11.3344 13.0882 11.3483 13.0836C11.3529 13.0836 11.3622 13.079 11.3668 13.079C11.3808 13.0743 11.3947 13.0697 11.4086 13.0697C11.4133 13.0697 11.4225 13.065 11.4272 13.065C11.4411 13.0604 11.455 13.0558 11.4736 13.0465C11.4782 13.0465 11.4829 13.0418 11.4875 13.0418C11.5061 13.0326 11.5246 13.0233 11.5432 13.014C11.5479 13.0093 11.5525 13.0093 11.5571 13.0047C11.5711 12.9954 11.5803 12.9908 11.5943 12.9815C11.5989 12.9769 11.6082 12.9722 11.6128 12.9676C11.6175 12.9629 11.6268 12.9583 11.6314 12.9536L20.863 5.06799V17.5532Z" fill="#62BAAF"/>
</g>
<defs>
<clipPath id="clip0_47_1472">
<rect width="22" height="22" fill="white" transform="translate(0.116211)"/>
</clipPath>
</defs>
</svg>
