<svg width="173" height="110" viewBox="0 0 173 110" fill="none" xmlns="http://www.w3.org/2000/svg">
<rect width="173" height="109.189" rx="3" fill="white"/>
<path d="M105.655 36.4223C105.655 35.6381 105.017 35 104.232 35H91.9419C91.1576 35 90.5195 35.6381 90.5195 36.4223V38.7234H105.655V36.4223H105.655Z" fill="#D3D3D3"/>
<path d="M77.8081 67.6915C83.5782 67.6915 88.2725 62.9972 88.2725 57.2271C88.2725 51.457 83.5782 46.7627 77.8081 46.7627C72.0381 46.7627 67.3438 51.457 67.3438 57.2271C67.3438 62.9972 72.0381 67.6915 77.8081 67.6915ZM72.6688 52.0878C75.5026 49.2543 80.1135 49.2543 82.9473 52.0878C84.3199 53.4606 85.076 55.2858 85.076 57.2271C85.076 59.1683 84.3201 60.9936 82.9471 62.3662C81.5746 63.7387 79.7494 64.4948 77.8081 64.4948C75.8669 64.4948 74.0416 63.7389 72.669 62.3662C71.2963 60.9934 70.5402 59.1682 70.5402 57.2271C70.5401 55.2858 71.2962 53.4606 72.6688 52.0878Z" fill="#D3D3D3"/>
<path d="M90.521 57.2267C90.521 60.0596 89.5886 62.6785 88.0158 64.7941H110.001V49.6592H88.0156C89.5886 51.7748 90.521 54.3937 90.521 57.2267Z" fill="#D3D3D3"/>
<path d="M65.0995 57.2268C65.0995 54.3938 66.0319 51.7748 67.6049 49.6592H63V64.7943H67.6047C66.0317 62.6787 65.0995 60.0598 65.0995 57.2268Z" fill="#D3D3D3"/>
<path d="M81.3624 60.7784C82.3111 59.8298 82.8335 58.5688 82.8335 57.2273C82.8335 55.8858 82.3111 54.6246 81.3624 53.676C80.4138 52.7273 79.1529 52.2051 77.8113 52.2051C76.4696 52.2051 75.2087 52.7273 74.2601 53.676C73.3114 54.6246 72.7891 55.8856 72.7891 57.2273C72.7891 58.5686 73.3114 59.8298 74.2601 60.7784C76.2182 62.7366 79.4042 62.7366 81.3624 60.7784Z" fill="#D3D3D3"/>
<path d="M107.413 40.9688H65.5866C64.1603 40.9688 63 42.129 63 43.5553V47.4134H69.7411C71.9373 45.6045 74.7487 44.5167 77.8094 44.5167C80.8701 44.5167 83.6816 45.6045 85.8778 47.4134H110V43.5553C110 42.129 108.84 40.9688 107.413 40.9688ZM102.959 45.3579H94.2688C93.6486 45.3579 93.1458 44.8552 93.1458 44.235C93.1458 43.6148 93.6486 43.1121 94.2688 43.1121H102.959C103.579 43.1121 104.082 43.6148 104.082 44.235C104.082 44.8552 103.579 45.3579 102.959 45.3579Z" fill="#D3D3D3"/>
<path d="M77.8096 69.9369C74.7487 69.9369 71.9373 68.8491 69.7409 67.04H63V70.8982C63 72.3245 64.1603 73.4847 65.5866 73.4847H107.413C108.84 73.4847 110 72.3245 110 70.8982V67.04H85.8781C83.6819 68.849 80.8704 69.9369 77.8096 69.9369Z" fill="#D3D3D3"/>
</svg>
