<svg width="279" height="72" viewBox="0 0 279 72" fill="none" xmlns="http://www.w3.org/2000/svg">
<path d="M15.0186 8.16797C16.8467 5.91797 18.9092 4.11328 21.2061 2.75391C23.5498 1.34766 26.1045 0.761719 28.8701 0.996094C31.6357 1.23047 34.0498 2.63672 36.1123 5.21484C38.5498 8.49609 39.3936 11.8711 38.6436 15.3398C37.9404 18.8086 36.2295 22.043 33.5107 25.043C30.8389 28.043 27.6514 30.3867 23.9482 32.0742C27.7451 33.293 30.9326 35.332 33.5107 38.1914C36.0889 41.0508 37.542 44.3789 37.8701 48.1758C38.1982 51.9258 36.7686 55.8633 33.5811 59.9883C31.7061 62.2852 29.7139 63.832 27.6045 64.6289C25.542 65.4258 23.6201 65.543 21.8389 64.9805C20.0576 64.418 18.3467 63.5039 16.7061 62.2383C15.0654 60.9727 13.6826 59.5664 12.5576 58.0195C11.4326 56.5195 10.5654 55.043 9.95605 53.5898C9.62793 57.7148 9.46387 60.6211 9.46387 62.3086C9.41699 63.0117 8.3623 63.5508 6.2998 63.9258C3.95605 64.3477 2.62012 64.1133 2.29199 63.2227C2.24512 63.082 2.22168 62.9414 2.22168 62.8008C1.89355 61.7695 1.58887 57.6445 1.30762 50.4258C1.02637 43.1602 1.00293 34.7695 1.2373 25.2539C1.47168 15.7383 2.12793 8.44922 3.20605 3.38672C4.2373 2.02734 5.71387 1.27734 7.63574 1.13672C9.55762 0.996094 11.2686 1.27734 12.7686 1.98047C14.3154 2.63672 15.1592 3.38672 15.2998 4.23047C15.2998 4.60547 15.2061 5.91797 15.0186 8.16797ZM25.0029 5.70703C23.4561 5.66016 21.6982 6.33984 19.7295 7.74609C17.8076 9.10547 16.0732 10.8164 14.5264 12.8789C14.292 15.1289 13.542 21.3867 12.2764 31.6523C14.1982 31.6992 16.9873 30.0117 20.6436 26.5898C24.9561 22.5117 27.8154 18.5273 29.2217 14.6367C30.9561 9.80859 29.5498 6.83203 25.0029 5.70703ZM24.2998 58.0898C25.0967 56.9648 25.6826 55.4648 26.0576 53.5898C26.4795 51.668 26.5498 49.6289 26.2686 47.4727C26.0342 45.3164 25.4482 43.3008 24.5107 41.4258C23.6201 39.5039 22.0732 37.9102 19.8701 36.6445C17.667 35.332 15.0186 34.6758 11.9248 34.6758C11.3623 39.7383 10.9639 43.4648 10.7295 45.8555C10.8232 45.9961 11.0342 46.3477 11.3623 46.9102C11.7373 47.4258 12.1357 48.0117 12.5576 48.668C12.9795 49.2773 13.4482 50.0039 13.9639 50.8477C14.5264 51.6914 15.0889 52.5117 15.6514 53.3086C16.2607 54.0586 16.8936 54.8086 17.5498 55.5586C18.2061 56.3086 18.8389 56.9414 19.4482 57.457C20.0576 57.9727 20.6436 58.3711 21.2061 58.6523C21.8154 58.9805 22.3779 59.0977 22.8936 59.0039C23.4561 58.9102 23.9248 58.6055 24.2998 58.0898ZM55.2373 21.3867C58.2842 21.3398 60.792 22.2773 62.7607 24.1992C65.4326 26.7773 65.5498 29.918 63.1123 33.6211C60.7686 37.2305 56.1514 40.9336 49.2607 44.7305C52.0264 55.9805 57.6982 53.1445 66.2764 36.2227C67.0732 34.582 68.1514 32.332 69.5107 29.4727C70.3076 27.832 70.8467 26.7305 71.1279 26.168C71.3623 25.8867 71.7139 25.7695 72.1826 25.8164C72.6514 25.8633 72.9092 26.0273 72.9561 26.3086C71.6904 30.9961 69.9092 35.6367 67.6123 40.2305C65.3154 44.7773 62.667 48.7852 59.667 52.2539C56.7139 55.7227 53.4092 57.3164 49.7529 57.0352C46.1436 56.7539 42.7451 54.0352 39.5576 48.8789C38.9014 47.7539 38.4561 46.3477 38.2217 44.6602C37.9404 42.9258 37.8701 41.0742 38.0107 39.1055C38.1045 37.1367 38.5498 35.168 39.3467 33.1992C40.1436 31.1836 41.1748 29.3555 42.4404 27.7148C43.7061 26.0273 45.4404 24.6211 47.6436 23.4961C49.8936 22.3242 52.4248 21.6211 55.2373 21.3867ZM59.0342 25.7461C57.4873 25.6992 55.8936 26.7773 54.2529 28.9805C52.6123 31.1836 51.3701 33.4805 50.5264 35.8711C49.6826 38.2148 49.4248 39.7148 49.7529 40.3711C52.7061 39.4336 55.5186 37.3711 58.1904 34.1836C60.7686 31.1367 61.7061 28.7695 61.0029 27.082C60.6748 26.3789 60.0186 25.9336 59.0342 25.7461ZM75.4873 22.3711C76.2842 22.0898 77.0576 21.9492 77.8076 21.9492C78.5576 21.9023 79.2842 22.043 79.9873 22.3711C80.6904 22.6523 81.2764 22.9102 81.7451 23.1445C82.2607 23.3789 82.8701 23.8242 83.5732 24.4805C84.2764 25.0898 84.7686 25.5586 85.0498 25.8867C85.3311 26.168 85.8232 26.6836 86.5264 27.4336C86.8545 25.8867 87.8154 24.7852 89.4092 24.1289C91.0029 23.4258 92.5264 23.3086 93.9795 23.7773C95.4326 24.2461 96.1357 25.1367 96.0889 26.4492C92.3857 41.8711 91.7529 49.3008 94.1904 48.7383C96.5811 48.2227 101.362 40.4648 108.534 25.4648C108.581 25.418 108.745 25.3711 109.026 25.3242C109.308 25.2773 109.565 25.2773 109.8 25.3242C110.081 25.3711 110.198 25.5117 110.151 25.7461C109.589 27.8555 109.097 29.6133 108.675 31.0195C108.3 32.4258 107.737 34.2305 106.987 36.4336C106.237 38.6367 105.511 40.4648 104.808 41.918C104.104 43.3711 103.214 44.9414 102.136 46.6289C101.104 48.3164 100.026 49.6289 98.9014 50.5664C97.7764 51.5039 96.4639 52.2539 94.9639 52.8164C93.5107 53.332 91.9639 53.4961 90.3232 53.3086C87.8857 52.9805 86.2217 51.5508 85.3311 49.0195C83.8779 51.6914 81.8857 53.3555 79.3545 54.0117C76.8701 54.6211 74.1279 53.918 71.1279 51.9023C69.0654 50.1211 67.8467 47.0273 67.4717 42.6211C67.0967 38.168 67.6592 33.9023 69.1592 29.8242C70.6592 25.6992 72.7686 23.2148 75.4873 22.3711ZM85.8232 31.3008C84.417 29.6602 83.0576 28.9336 81.7451 29.1211C80.4795 29.1211 79.3779 30.4102 78.4404 32.9883C77.5498 35.5195 77.0811 38.1914 77.0342 41.0039C77.0342 43.8164 77.3623 46.207 78.0186 48.1758C78.7217 49.0195 79.7061 48.4336 80.9717 46.418C82.2373 44.3555 83.5029 41.7539 84.7686 38.6133C85.0967 35.8945 85.4482 33.457 85.8232 31.3008ZM104.878 12.8086C108.956 12.0586 111.511 12.8086 112.542 15.0586C113.62 17.3086 112.729 20.9414 109.87 25.957C111.37 25.7695 113.269 25.1133 115.565 23.9883C117.862 22.8164 119.409 21.8789 120.206 21.1758C120.909 20.5664 121.706 20.2383 122.597 20.1914C123.487 20.0977 124.308 20.2148 125.058 20.543C125.854 20.8711 126.581 21.2461 127.237 21.668C127.894 22.043 128.409 22.418 128.784 22.793C129.159 23.168 129.323 23.3789 129.276 23.4258C129.417 23.6133 128.69 25.7461 127.097 29.8242C125.55 33.8555 124.19 37.9336 123.019 42.0586C121.847 46.1367 121.776 48.457 122.808 49.0195C124.542 50.0508 126.792 48.9961 129.558 45.8555C132.323 42.668 134.737 39.1055 136.8 35.168C138.862 31.2305 140.245 28.1133 140.948 25.8164C141.136 25.4414 141.558 25.418 142.214 25.7461C142.354 25.8398 142.448 25.9102 142.495 25.957C142.354 28.6289 141.417 32.0039 139.683 36.082C137.948 40.1133 135.745 43.8633 133.073 47.332C130.401 50.8008 127.472 53.2852 124.284 54.7852C121.097 56.2852 118.003 55.8164 115.003 53.3789C114.206 52.3945 113.761 50.8477 113.667 48.7383C113.573 46.582 113.761 44.2617 114.229 41.7773C114.745 39.293 115.284 36.9023 115.847 34.6055C116.456 32.3086 117.019 30.2227 117.534 28.3477C118.097 26.4727 118.401 25.3477 118.448 24.9727C116.761 25.8164 115.542 26.4023 114.792 26.7305C114.089 27.0586 113.011 27.457 111.558 27.9258C110.151 28.3945 108.862 28.582 107.69 28.4883C106.565 28.3477 105.417 27.9727 104.245 27.3633C102.651 26.2852 101.573 24.6914 101.011 22.582C100.401 20.4258 100.448 18.3867 101.151 16.4648C101.854 14.543 103.097 13.3242 104.878 12.8086ZM109.308 16.6055C108.276 16.5586 107.456 17.1914 106.847 18.5039C106.19 19.8164 105.909 21.2461 106.003 22.793C106.097 24.293 106.519 25.3008 107.269 25.8164C107.315 25.582 107.503 25.0898 107.831 24.3398C108.159 23.543 108.487 22.7461 108.815 21.9492C109.144 21.1523 109.425 20.3555 109.659 19.5586C109.94 18.7148 110.058 18.0352 110.011 17.5195C109.964 16.957 109.729 16.6523 109.308 16.6055ZM143.62 4.44141C156.136 3.92578 171.956 4.27734 191.081 5.49609C192.581 7.32422 193.12 9.12891 192.698 10.9102C192.323 12.6445 191.55 13.6523 190.378 13.9336C185.925 13.793 179.972 13.5352 172.519 13.1602C172.19 16.3008 171.511 21.5742 170.479 28.9805C169.495 36.3398 168.651 43.043 167.948 49.0898C167.245 55.0898 166.894 59.543 166.894 62.4492C166.894 63.293 166.284 63.9727 165.065 64.4883C163.847 65.0039 162.628 65.1211 161.409 64.8398C160.19 64.6055 159.581 63.9727 159.581 62.9414C159.112 61.3477 158.831 55.043 158.737 44.0273C158.644 32.9648 159.065 22.4883 160.003 12.5977C152.269 12.2695 146.948 12.1055 144.042 12.1055C142.214 12.1992 141.065 11.6133 140.597 10.3477C140.128 9.03516 140.245 7.72266 140.948 6.41016C141.651 5.09766 142.542 4.44141 143.62 4.44141ZM185.948 12.8086C190.026 12.0586 192.581 12.8086 193.612 15.0586C194.69 17.3086 193.8 20.9414 190.94 25.957C192.44 25.7695 194.339 25.1133 196.636 23.9883C198.933 22.8164 200.479 21.8789 201.276 21.1758C201.979 20.5664 202.776 20.2383 203.667 20.1914C204.558 20.0977 205.378 20.2148 206.128 20.543C206.925 20.8711 207.651 21.2461 208.308 21.668C208.964 22.043 209.479 22.418 209.854 22.793C210.229 23.168 210.394 23.3789 210.347 23.4258C210.487 23.6133 209.761 25.7461 208.167 29.8242C206.62 33.8555 205.261 37.9336 204.089 42.0586C202.917 46.1367 202.847 48.457 203.878 49.0195C205.612 50.0508 207.862 48.9961 210.628 45.8555C213.394 42.668 215.808 39.1055 217.87 35.168C219.933 31.2305 221.315 28.1133 222.019 25.8164C222.206 25.4414 222.628 25.418 223.284 25.7461C223.425 25.8398 223.519 25.9102 223.565 25.957C223.425 28.6289 222.487 32.0039 220.753 36.082C219.019 40.1133 216.815 43.8633 214.144 47.332C211.472 50.8008 208.542 53.2852 205.354 54.7852C202.167 56.2852 199.073 55.8164 196.073 53.3789C195.276 52.3945 194.831 50.8477 194.737 48.7383C194.644 46.582 194.831 44.2617 195.3 41.7773C195.815 39.293 196.354 36.9023 196.917 34.6055C197.526 32.3086 198.089 30.2227 198.604 28.3477C199.167 26.4727 199.472 25.3477 199.519 24.9727C197.831 25.8164 196.612 26.4023 195.862 26.7305C195.159 27.0586 194.081 27.457 192.628 27.9258C191.222 28.3945 189.933 28.582 188.761 28.4883C187.636 28.3477 186.487 27.9727 185.315 27.3633C183.722 26.2852 182.644 24.6914 182.081 22.582C181.472 20.4258 181.519 18.3867 182.222 16.4648C182.925 14.543 184.167 13.3242 185.948 12.8086ZM190.378 16.6055C189.347 16.5586 188.526 17.1914 187.917 18.5039C187.261 19.8164 186.979 21.2461 187.073 22.793C187.167 24.293 187.589 25.3008 188.339 25.8164C188.386 25.582 188.573 25.0898 188.901 24.3398C189.229 23.543 189.558 22.7461 189.886 21.9492C190.214 21.1523 190.495 20.3555 190.729 19.5586C191.011 18.7148 191.128 18.0352 191.081 17.5195C191.034 16.957 190.8 16.6523 190.378 16.6055ZM225.815 16.1836C228.159 15.5742 229.753 15.9023 230.597 17.168C231.019 17.918 231.042 18.9492 230.667 20.2617C230.292 21.5273 229.612 22.2773 228.628 22.5117C227.597 22.793 226.495 22.8398 225.323 22.6523C224.151 22.418 223.401 21.9492 223.073 21.2461C222.698 20.4492 222.792 19.4648 223.354 18.293C223.964 17.1211 224.784 16.418 225.815 16.1836ZM220.19 25.1133C220.94 24.1289 222.815 23.8477 225.815 24.2695C228.862 24.6914 230.433 25.3945 230.526 26.3789C230.433 26.7539 230.315 27.2695 230.175 27.9258C230.034 28.582 229.823 29.8477 229.542 31.7227C229.261 33.5977 229.05 35.3789 228.909 37.0664C228.769 38.7539 228.745 40.6289 228.839 42.6914C228.933 44.707 229.19 46.3945 229.612 47.7539C231.019 51.4102 233.315 49.1367 236.503 40.9336C237.862 37.3711 239.479 32.3555 241.354 25.8867C241.636 25.4648 242.011 25.2305 242.479 25.1836C242.948 25.1367 243.347 25.207 243.675 25.3945C244.003 25.582 244.144 25.7461 244.097 25.8867C243.628 31.2305 242.034 37.0898 239.315 43.4648C236.034 51.1992 232.589 55.5117 228.979 56.4023C226.214 57.1055 223.612 55.5352 221.175 51.6914C218.644 48.082 218.104 40.5352 219.558 29.0508L220.19 25.1133ZM260.128 21.9492C266.362 21.9492 268.354 27.1055 266.104 37.418C269.62 34.2305 273.019 30.2695 276.3 25.5352C276.487 25.3008 276.792 25.207 277.214 25.2539C277.636 25.2539 278.011 25.3945 278.339 25.6758C278.667 25.957 278.737 26.2383 278.55 26.5195C274.659 33.2227 270.089 38.543 264.839 42.4805C262.87 48.8555 260.854 52.8164 258.792 54.3633C257.245 55.9102 255.253 56.4492 252.815 55.9805C250.425 55.5117 248.761 54.457 247.823 52.8164C246.933 51.1758 247.144 49.3477 248.456 47.332C249.3 46.3477 251.456 45.4336 254.925 44.5898C257.737 39.0117 259.167 34.6523 259.214 31.5117C259.214 29.5898 258.511 28.6992 257.104 28.8398C256.542 28.7461 255.956 28.8164 255.347 29.0508C254.737 29.2852 254.151 29.6836 253.589 30.2461C253.073 30.8086 252.581 31.3945 252.112 32.0039C251.644 32.6133 251.151 33.3867 250.636 34.3242C250.12 35.2148 249.698 35.9883 249.37 36.6445C249.042 37.2539 248.644 38.0273 248.175 38.9648C247.753 39.8555 247.448 40.4648 247.261 40.793C247.214 44.8242 247.19 53.7539 247.19 67.582C247.237 69.2227 246.628 70.3242 245.362 70.8867C244.144 71.4492 242.901 71.4961 241.636 71.0273C240.37 70.5586 239.761 69.9023 239.808 69.0586C239.058 65.168 238.542 59.6602 238.261 52.5352C237.933 45.3633 237.815 39.0117 237.909 33.4805C238.003 27.9492 238.19 24.7617 238.472 23.918C238.284 23.3555 238.823 22.8164 240.089 22.3008C242.245 21.4102 244.261 21.3633 246.136 22.1602C247.026 22.5352 247.706 23.1211 248.175 23.918C247.8 24.293 247.542 27.4805 247.401 33.4805C248.948 29.918 250.823 27.1055 253.026 25.043C255.276 22.9805 257.644 21.9492 260.128 21.9492ZM252.464 48.8789C251.104 49.3008 250.237 49.6289 249.862 49.8633C249.534 50.0977 249.581 50.4023 250.003 50.7773C250.19 51.0586 250.495 51.0352 250.917 50.707C251.339 50.332 251.854 49.7227 252.464 48.8789Z" fill="#62BAAF"/>
</svg>
