<svg width="32" height="32" viewBox="0 0 32 32" fill="none" xmlns="http://www.w3.org/2000/svg">
<circle cx="16" cy="16" r="16" fill="#62BAAF"/>
<path d="M25.7748 7C22.7869 7.38036 18.0474 11.6144 14.0987 17.7352C13.7934 18.2057 13.5031 18.6761 13.2278 19.1416C13.2278 19.1416 13.2278 19.1416 13.2228 19.1366C13.2178 19.1416 13.2178 19.1466 13.2128 19.1516C12.5722 18.511 11.8816 17.8704 11.1509 17.2448C10.8105 16.9545 10.4702 16.6742 10.1349 16.399L5 19.6471C7.34724 20.7481 9.39419 22.0593 10.9857 23.4156C10.9857 23.4106 10.9907 23.4056 10.9907 23.4006C11.9466 24.2164 12.7424 25.0522 13.3329 25.868C13.5932 25.4826 13.8584 25.0972 14.1337 24.7069C14.7343 23.8511 15.3449 23.0303 15.9554 22.2495L15.9604 22.2545C20.0343 17.0246 24.0832 13.5713 26 13.7164L25.7748 7Z" fill="white"/>
</svg>
