<svg width="11" height="16" viewBox="0 0 11 16" fill="none" xmlns="http://www.w3.org/2000/svg">
<path d="M10.5 5.10638C10.5 5.69387 10.2003 6.63964 9.68416 7.79422C9.1787 8.92495 8.50089 10.1815 7.81748 11.3599C7.13502 12.5367 6.45188 13.6271 5.93896 14.4238C5.77266 14.6821 5.62439 14.9094 5.5 15.0984C5.37561 14.9094 5.22734 14.6821 5.06104 14.4238C4.54812 13.6271 3.86498 12.5367 3.18252 11.3599C2.49911 10.1815 1.8213 8.92495 1.31584 7.79422C0.799723 6.63964 0.5 5.69387 0.5 5.10638C0.5 2.59666 2.70296 0.5 5.5 0.5C8.29704 0.5 10.5 2.59666 10.5 5.10638Z" fill="#62BAAF" stroke="#62BAAF"/>
<circle cx="5.5" cy="5.5" r="3" fill="white" stroke="#62BAAF"/>
</svg>
