<svg width="18" height="19" viewBox="0 0 18 19" fill="none" xmlns="http://www.w3.org/2000/svg">
<circle cx="9" cy="9" r="9" fill="white"/>
<path d="M8.23791 10.348L7.99791 8.404L8.05791 8.344C9.53791 8.288 10.2779 7.832 10.2779 6.976C10.2779 6.632 10.1539 6.356 9.90591 6.148C9.65791 5.94 9.32191 5.836 8.89791 5.836C8.18591 5.836 7.53391 6.152 6.94191 6.784L6.04191 5.824C6.82591 4.936 7.78991 4.492 8.93391 4.492C9.78191 4.492 10.4619 4.716 10.9739 5.164C11.4859 5.604 11.7419 6.2 11.7419 6.952C11.7419 7.664 11.5219 8.216 11.0819 8.608C10.6419 8.992 10.0579 9.248 9.32991 9.376L9.20991 10.348H8.23791ZM7.88991 13V11.356H9.49791V13H7.88991Z" fill="#62BAAF"/>
</svg>
