<svg width="38" height="22" viewBox="0 0 38 22" fill="none" xmlns="http://www.w3.org/2000/svg">
<path d="M37.679 6.04324C37.0631 5.70754 36.4296 5.27344 36.2603 5.07535C36.2559 5.03371 36.252 4.9871 36.2477 4.93641C36.1731 4.05692 36.0344 2.42805 32.5664 0.948719C32.4709 0.749887 32.3401 0.561001 32.1699 0.402321C31.7513 0.0123021 31.2035 -0.0986549 30.6275 0.0891925C30.1404 0.248317 29.8309 0.48552 29.6332 0.726879C29.0315 0.770669 28.5827 0.935805 28.1806 1.08439C27.7627 1.23869 27.4018 1.37199 26.8792 1.37199C26.6288 1.37199 26.3204 1.16729 25.9635 0.930238C25.3787 0.542001 24.6508 0.0587626 23.5963 0.0587626C22.4097 0.0587626 21.5897 0.445071 20.7966 0.818762C19.7042 1.33347 18.6725 1.81953 16.4946 1.38394C13.8836 0.861808 9.71464 1.85107 8.17816 2.77287C6.76823 3.61888 5.18515 6.16295 3.47278 10.3347C2.38681 12.9802 1.5828 15.481 1.38656 16.1045L0.180288 17.3103C0.00624519 17.4845 -0.0474149 17.7456 0.0440225 17.9742L1.35717 21.2571C1.45076 21.4908 1.67706 21.6441 1.92873 21.6441H3.89849C4.23849 21.6441 4.51406 21.3686 4.51406 21.0285C4.51406 20.6885 4.23856 20.4129 3.89849 20.4129H3.85738V19.6345C5.8169 19.3934 8.25298 18.096 9.56806 16.8852C9.74099 16.7261 9.91176 16.5781 10.0811 16.4387C10.265 16.7931 10.4968 17.1007 10.7242 17.3999C11.287 18.1405 11.8185 18.8402 11.8185 20.3719C11.8185 20.7612 12.1172 20.9152 12.3572 21.0389C12.4707 21.0974 12.6272 21.1749 12.8224 21.2695C13.1542 21.4302 13.4861 21.5858 13.4861 21.5858C13.5678 21.6241 13.657 21.644 13.7474 21.644H17.0303C17.3703 21.644 17.6459 21.3685 17.6459 21.0284C17.6459 20.6884 17.3704 20.4129 17.0303 20.4129H15.7738C15.9515 19.7813 16.3487 19.0364 16.7635 18.2593C17.0173 17.7836 17.283 17.2854 17.5209 16.7712C17.7209 17.3464 18.0015 17.9508 18.3846 18.578V19.9077C18.3846 20.3715 18.5652 20.8077 18.8931 21.1355C19.2211 21.4634 19.6572 21.644 20.121 21.644H23.5961C23.9361 21.644 24.2117 21.3685 24.2117 21.0284C24.2117 20.6884 23.9362 20.4129 23.5961 20.4129H22.9708L23.5138 15.5257C23.7356 15.4122 24.0534 15.2371 24.4235 14.9977C24.7571 16.0392 25.8828 18.8227 28.571 19.6196L31.1059 21.5207C31.2124 21.6007 31.342 21.6439 31.4752 21.6439H35.4147C35.7547 21.6439 36.0303 21.3684 36.0303 21.0283C36.0303 20.6883 35.7548 20.4127 35.4147 20.4127H34.7581C34.2522 20.4127 33.6303 19.1825 33.0289 17.9925C32.4607 16.8683 31.7597 15.4815 30.7786 14.2459C30.7783 13.3645 30.7254 10.9753 30.1899 9.82535H32.7884C32.9765 9.82535 33.1543 9.73933 33.271 9.59185C33.6059 9.16873 34.3272 9.16873 34.7581 9.16873C36.3225 9.16873 36.9849 8.89108 37.1019 8.83534C37.2548 8.76246 37.371 8.62983 37.4231 8.46855L37.9703 6.77236C38.061 6.49107 37.9386 6.18485 37.679 6.04324ZM15.6773 17.6798C15.1667 18.6364 14.6795 19.5502 14.5092 20.413H13.8848C13.5819 20.2701 13.2593 20.1147 13.0405 20.0053C12.9535 18.299 12.265 17.3928 11.7045 16.6552C11.4511 16.3216 11.2289 16.0283 11.0949 15.7041C12.9647 14.5318 14.7401 14.4221 17.0173 14.4216C16.8415 15.4953 16.252 16.6028 15.6773 17.6798ZM31.9301 18.5481C32.2862 19.2526 32.6118 19.8968 32.9581 20.413H31.6802L29.218 18.5664C29.1555 18.5195 29.0847 18.485 29.0093 18.4646C26.3695 17.7512 25.516 14.3528 25.5078 14.3196C25.5001 14.2873 25.4893 14.2566 25.477 14.2268C26.3843 13.4776 27.3574 12.4266 27.9826 11.0433C28.2943 10.9531 28.7502 10.7931 29.1616 10.5412C29.4206 11.2983 29.5618 13.0271 29.5463 14.456C29.5448 14.6013 29.5947 14.7427 29.6873 14.8547C30.6559 16.0273 31.3329 17.3666 31.9301 18.5481ZM36.3488 7.78849C36.081 7.85261 35.5719 7.93789 34.7579 7.93789C34.2453 7.93789 33.2322 7.93789 32.5217 8.5945H30.1376C29.6832 8.5945 29.2886 8.27113 29.1995 7.82552L28.927 6.46294C28.8603 6.12963 28.536 5.91387 28.2027 5.98C27.8694 6.04673 27.6531 6.37099 27.7198 6.7043L27.9922 8.06688C28.0941 8.5761 28.3705 9.01547 28.751 9.32778C28.496 9.5474 27.9436 9.80026 27.4019 9.92235C27.2039 9.96636 27.0402 10.1052 26.9645 10.2934C25.8059 13.1709 22.7253 14.5411 22.6952 14.5543C22.4922 14.6419 22.3519 14.8317 22.3276 15.0514L21.7318 20.4131H20.1208C19.9858 20.4131 19.8588 20.3605 19.7634 20.2649C19.668 20.1696 19.6154 20.0428 19.6154 19.9077V18.4022C19.6154 18.2855 19.5822 18.1712 19.5197 18.0726C16.9067 13.9506 19.3504 11.058 19.4616 10.9302C19.6858 10.6759 19.6622 10.288 19.4084 10.0628C19.154 9.83722 18.7649 9.86038 18.5395 10.1146C18.5057 10.1526 17.7086 11.0632 17.3117 12.5838C17.2612 12.7771 17.2163 12.9865 17.1801 13.2098C17.1321 13.1977 17.0819 13.1906 17.0301 13.1906C13.9465 13.1906 11.5464 13.3907 8.73421 15.9796C7.13354 17.4532 4.60201 18.4432 3.24188 18.4432C2.90189 18.4432 2.62631 18.7187 2.62631 19.0588V20.413H2.34547L1.3378 17.894L2.36402 16.8678C2.4352 16.7966 2.48789 16.709 2.51736 16.6127C3.45712 13.5435 6.41985 5.26357 8.81132 3.8287C10.0081 3.11063 13.882 2.11685 16.253 2.59125C18.8294 3.1064 20.1532 2.48282 21.3212 1.93264C22.053 1.58782 22.685 1.29005 23.5961 1.29005C24.2792 1.29005 24.7666 1.6135 25.2824 1.95609C25.7617 2.27419 26.2572 2.6032 26.879 2.6032C27.6217 2.6032 28.1452 2.40994 28.6069 2.23938C28.8404 2.15321 29.0573 2.07439 29.2945 2.01992C29.3643 2.52342 29.6041 2.91462 29.6438 2.97645C29.7618 3.16021 29.9615 3.26108 30.1651 3.26108C30.2785 3.26108 30.3931 3.22983 30.4954 3.16415C30.7816 2.98068 30.8661 2.60172 30.6824 2.3156C30.5976 2.17867 30.4485 1.82398 30.5299 1.60125C30.5933 1.42758 30.8257 1.31959 31.0097 1.25955C31.1937 1.19936 31.2688 1.24767 31.3247 1.29755C31.4935 1.44821 31.5531 1.74798 31.5346 1.83823C31.4522 2.16806 31.6527 2.50226 31.9825 2.5848C32.2399 2.64899 32.4992 2.54071 32.6402 2.33371C34.8818 3.41812 34.9655 4.38334 35.0211 5.04039C35.0297 5.14185 35.0379 5.23759 35.0521 5.33341C35.0795 5.51888 35.1488 5.98579 36.6448 6.87174L36.3488 7.78849Z" fill="#62BAAF"/>
</svg>
