<svg width="89" height="73" viewBox="0 0 89 73" fill="none" xmlns="http://www.w3.org/2000/svg">
<path d="M29.2659 57.8396C28.7714 57.8396 28.3706 58.2404 28.3706 58.7349C28.3706 59.8209 27.487 60.7046 26.4009 60.7046C25.3148 60.7046 24.4312 59.8209 24.4312 58.7349C24.4312 57.6488 25.3148 56.7652 26.4009 56.7652C26.8953 56.7652 27.2962 56.3644 27.2962 55.8699C27.2962 55.3755 26.8953 54.9746 26.4009 54.9746C24.3275 54.9746 22.6406 56.6615 22.6406 58.7349C22.6406 60.8083 24.3275 62.4952 26.4009 62.4952C28.4743 62.4952 30.1612 60.8083 30.1612 58.7349C30.1612 58.2404 29.7603 57.8396 29.2659 57.8396Z" fill="#333333"/>
<path d="M67.4651 57.8396C66.9706 57.8396 66.5698 58.2404 66.5698 58.7349C66.5698 59.8209 65.6862 60.7046 64.6001 60.7046C63.5141 60.7046 62.6304 59.8209 62.6304 58.7349C62.6304 57.6488 63.5141 56.7652 64.6001 56.7652C65.0946 56.7652 65.4954 56.3644 65.4954 55.8699C65.4954 55.3755 65.0946 54.9746 64.6001 54.9746C62.5267 54.9746 60.8398 56.6615 60.8398 58.7349C60.8398 60.8083 62.5267 62.4952 64.6001 62.4952C66.6735 62.4952 68.3604 60.8083 68.3604 58.7349C68.3604 58.2404 67.9595 57.8396 67.4651 57.8396Z" fill="#333333"/>
<path d="M68.4186 42.5596H66.5086C66.0141 42.5596 65.6133 42.9604 65.6133 43.4549C65.6133 43.9493 66.0141 44.3502 66.5086 44.3502H68.4186C68.913 44.3502 69.3139 43.9493 69.3139 43.4549C69.3139 42.9604 68.913 42.5596 68.4186 42.5596Z" fill="#333333"/>
<path d="M54.0949 50.1992H36.9051C36.4106 50.1992 36.0098 50.6001 36.0098 51.0945C36.0098 51.589 36.4106 51.9898 36.9051 51.9898H54.0949C54.5893 51.9898 54.9902 51.589 54.9902 51.0945C54.9902 50.6001 54.5893 50.1992 54.0949 50.1992Z" fill="#333333"/>
<path d="M71.2863 38.7394H59.2922L51.151 28.8595C51.1418 28.8483 51.1323 28.8373 51.1225 28.8267C50.3826 28.0129 49.3817 27.4874 48.3053 27.3301V23.3998C48.3053 21.3264 46.6184 19.6396 44.545 19.6396H40.6654V19.5799C40.6654 19.0854 40.2645 18.6846 39.7701 18.6846C39.2756 18.6846 38.8748 19.0854 38.8748 19.5799V19.6396H33.9804V19.5799C33.9804 19.0854 33.5796 18.6846 33.0851 18.6846C32.5907 18.6846 32.1898 19.0854 32.1898 19.5799V19.6396H28.3102C26.2368 19.6396 24.5499 21.3264 24.5499 23.3998V27.2839C22.976 27.3296 21.5414 28.1396 20.6922 29.474C20.6841 29.4868 20.6762 29.5 20.6687 29.5132L15.7235 38.2372C15.2501 38.9895 15 39.8562 15 40.7454V51.0945C15 52.9192 16.0764 54.5963 17.7423 55.3671C17.9812 55.4777 18.257 55.4775 18.4956 55.3663C18.714 55.2649 18.8801 55.0798 18.9605 54.8548H19.8913C19.2117 55.9905 18.82 57.3174 18.82 58.7345C18.82 62.9142 22.2204 66.3147 26.4002 66.3147C30.5799 66.3147 33.9804 62.9142 33.9804 58.7345C33.9804 57.3174 33.5886 55.9905 32.909 54.8548H33.8372C33.8599 54.9405 33.8819 55.0264 33.9016 55.1129C33.9943 55.5206 34.3567 55.8098 34.7746 55.8098H56.225C56.6431 55.8098 57.0055 55.5206 57.098 55.1129C57.1177 55.0264 57.1398 54.9405 57.1625 54.8548H58.0906C57.411 55.9905 57.0192 57.3174 57.0192 58.7345C57.0192 62.9142 60.4197 66.3147 64.5994 66.3147C68.7792 66.3147 72.1797 62.9142 72.1797 58.7345C72.1797 57.3174 71.7879 55.9905 71.1083 54.8548H72.0364C72.0591 54.9405 72.0812 55.0264 72.1009 55.1129C72.1935 55.5206 72.5559 55.8098 72.9739 55.8098H73.1915C74.7404 55.8098 76 54.5501 76 53.0018V43.4531C76 40.854 73.8854 38.7394 71.2863 38.7394ZM74.2094 46.3793H73.1947C72.6352 46.3793 72.18 45.9241 72.18 45.3646C72.18 44.8051 72.6352 44.3499 73.1947 44.3499H74.2094V46.3793ZM51.3568 31.925L56.9721 38.7394H28.8524L31.7797 33.29C32.3211 32.441 33.2429 31.9351 34.2514 31.9351H51.2299C51.2732 31.9351 51.3153 31.931 51.3568 31.925ZM44.545 21.4302C45.6311 21.4302 46.5147 22.3138 46.5147 23.3998V27.2795H40.6654V21.4302H44.545ZM38.8748 21.4302V27.2795H33.9804V21.4302H38.8748ZM28.3102 21.4302H32.1898V27.2795H26.3405V23.3998C26.3405 22.3138 27.2241 21.4302 28.3102 21.4302ZM21.3747 31.8988C21.4543 31.9219 21.5382 31.9351 21.6252 31.9351H25.8579L22.929 37.387C22.3888 38.2343 21.4685 38.7394 20.4618 38.7394H17.4971L21.3747 31.8988ZM26.4002 64.5241C23.2078 64.5241 20.6106 61.9269 20.6106 58.7345C20.6106 55.5421 23.2078 52.9448 26.4002 52.9448C29.5926 52.9448 32.1898 55.5421 32.1898 58.7345C32.1898 61.9269 29.5926 64.5241 26.4002 64.5241ZM31.4233 53.0642C30.0848 51.8772 28.3258 51.1542 26.4002 51.1542C24.4746 51.1542 22.7156 51.8772 21.3771 53.0642H19.6902C21.0284 50.6784 23.5792 49.1249 26.4002 49.1249C28.1804 49.1249 29.8511 49.7155 31.2317 50.8331C31.9972 51.4527 32.6339 52.214 33.1108 53.0642H31.4233ZM64.5998 64.5241C61.4074 64.5241 58.8102 61.9269 58.8102 58.7345C58.8102 55.5421 61.4074 52.9448 64.5998 52.9448C67.7922 52.9448 70.3894 55.5421 70.3894 58.7345C70.3894 61.9269 67.7922 64.5241 64.5998 64.5241ZM69.6229 53.0642C68.2844 51.8772 66.5254 51.1542 64.5998 51.1542C62.6742 51.1542 60.9152 51.8772 59.5767 53.0642H57.8892C58.3661 52.2139 59.0028 51.4527 59.7683 50.8331C61.1489 49.7155 62.8196 49.1249 64.5998 49.1249C66.38 49.1249 68.0507 49.7155 69.4313 50.8331C70.1968 51.4527 70.8335 52.214 71.3104 53.0642H69.6229ZM73.6291 53.9204C73.066 52.1733 71.995 50.6045 70.5579 49.4413C68.8794 48.0826 66.7633 47.3343 64.5998 47.3343C62.4363 47.3343 60.3203 48.0826 58.6417 49.4413C57.1775 50.6265 56.0935 52.2325 55.5392 54.0192H35.4608C34.9065 52.2325 33.8225 50.6265 32.3583 49.4413C30.6797 48.0826 28.5637 47.3343 26.4002 47.3343C22.5539 47.3343 19.1143 49.6757 17.6548 53.1576C17.1122 52.6179 16.7906 51.878 16.7906 51.0945V44.3499H62.6898C63.1843 44.3499 63.5851 43.9491 63.5851 43.4546C63.5851 42.9602 63.1843 42.5593 62.6898 42.5593H16.7906V40.7454C16.7906 40.6725 16.7937 40.5998 16.7991 40.5275C16.8162 40.5283 16.833 40.53 16.8503 40.53H20.4618C22.099 40.53 23.5946 39.7012 24.4623 38.3127C24.4727 38.2961 24.4825 38.2792 24.4918 38.262L28.144 31.4635C28.2931 31.1861 28.2853 30.8507 28.1237 30.5804C27.9621 30.3101 27.6702 30.1445 27.3552 30.1445H22.4147C22.9711 29.4664 23.7978 29.0701 24.6902 29.0701H47.6251C48.4438 29.0701 49.2295 29.4147 49.7841 30.0162L49.8897 30.1445H34.2514C32.6125 30.1445 31.1153 30.9742 30.2468 32.3641C30.2364 32.3807 30.2266 32.3976 30.2173 32.4149L26.5666 39.211C26.4175 39.4886 26.4253 39.8239 26.5869 40.0941C26.7485 40.3644 27.0402 40.53 27.3552 40.53H58.8699H71.2863C72.5864 40.53 73.6906 41.3834 74.0691 42.5593H73.1947C71.6479 42.5593 70.3894 43.8178 70.3894 45.3646C70.3894 46.9115 71.6479 48.1699 73.1947 48.1699H74.2094V53.0018C74.2094 53.4063 73.972 53.7566 73.6291 53.9204Z" fill="#333333"/>
<path d="M84 69H58V71H84V69Z" fill="#333333"/>
<path d="M51 69H56V71H51V69Z" fill="#333333"/>
<path d="M47 66H7V69H47V66Z" fill="#333333"/>
<path d="M0 66H5V69H0V66Z" fill="#333333"/>
<path d="M13.9354 27H4.06448C1.82379 27 0 25.1154 0 22.8C0 20.4846 1.82379 18.6 4.06448 18.6C4.28689 18.6 4.50808 18.6186 4.72647 18.6558C5.53587 16.4772 7.57744 15 9.87092 15C12.1894 15 14.2745 16.5307 15.0567 18.7633C16.7813 19.2733 18 20.9167 18 22.8001C17.9999 25.1154 16.1761 27 13.9354 27Z" fill="#62BAAF"/>
<path d="M80.8708 23H61.129C56.6476 23 53 19.3878 53 14.95C53 10.5121 56.6476 6.89998 61.129 6.89998C61.5738 6.89998 62.0162 6.93572 62.4529 7.00696C64.0717 2.83138 68.1549 0 72.7418 0C77.3788 0 81.549 2.93378 83.1134 7.21296C86.5625 8.19057 89 11.3402 89 14.9502C88.9998 19.3878 85.3522 23 80.8708 23Z" fill="#62BAAF"/>
</svg>
