<svg width="76" height="76" viewBox="0 0 76 76" fill="none" xmlns="http://www.w3.org/2000/svg">
<g clip-path="url(#clip0_47_3325)">
<path d="M67.4191 25.129H46.5805C41.8502 25.129 38 21.2788 38 16.5485C38 11.8182 41.8502 7.96799 46.5805 7.96799C47.0501 7.96799 47.517 8.00608 47.9781 8.08202C49.6868 3.63126 53.9968 0.613281 58.8386 0.613281C63.7331 0.613281 68.135 3.7404 69.7863 8.3016C73.427 9.34363 75.9999 12.7009 75.9999 16.5488C75.9996 21.2788 72.1494 25.129 67.4191 25.129Z" fill="#62BAAF"/>
<path d="M74.263 40.6631C69.9765 38.5191 65.1761 37.3864 60.3833 37.3864H44.9271L31.035 27.5801H19.1067L28.9131 37.3864H18.8542L7.82201 27.5801H0.566406L5.42312 38.5093L3.67885 38.7999V42.9199L4.46218 43.48C10.1081 47.513 16.7606 49.6447 23.6988 49.6447H26.4617L17.4924 58.6137L18.7453 59.441C19.1363 59.6997 19.5052 59.9976 19.8411 60.326L20.1989 60.6766H27.3588L42.9877 49.6444H60.0754C64.3032 49.6444 68.417 48.7999 72.3015 47.1351L74.096 46.3665C75.2531 45.8689 76.0008 44.735 76.0008 43.4759C76.0011 42.2774 75.3354 41.1998 74.263 40.6631ZM25.0248 30.0317H30.2578L40.6771 37.3864H32.3797L25.0248 30.0317ZM4.33939 30.0317H6.89041L15.1646 37.3864H13.4767C12.6015 37.3864 11.7201 37.4601 10.8572 37.6034L7.92137 38.0925L4.33939 30.0317ZM73.1304 44.1125L71.3359 44.8812C67.7565 46.4159 63.9701 47.1931 60.0756 47.1931H46.4608L48.5152 45.743L47.1007 43.74L26.5809 58.2252H21.3475L33.9647 45.6081L32.2315 43.8749L28.9133 47.1931H23.6986C17.3745 47.1931 11.3069 45.2797 6.13025 41.6573V40.8765L11.2603 40.0209C11.9909 39.8996 12.7374 39.8381 13.4767 39.8381H60.3833C64.7985 39.8381 69.2189 40.8812 73.1659 42.8548C73.4025 42.9737 73.5494 43.2116 73.5494 43.4762C73.5494 43.7532 73.3839 44.0034 73.1304 44.1125Z" fill="#333333"/>
<path d="M22.0644 75.3871H7.3547C3.29856 75.3871 0 72.0886 0 68.0324C0 64.4311 2.65141 61.3812 6.15488 60.8039C7.87829 57.7272 11.1622 55.7744 14.7097 55.7744C19.3702 55.7744 23.3615 59.0707 24.3003 63.5631C26.6294 64.4715 28.1935 66.7072 28.1935 69.2582C28.1935 72.6376 25.444 75.3871 22.0644 75.3871Z" fill="#62BAAF"/>
<path d="M66.1938 63.1289H41.6777V65.5805H66.1938V63.1289Z" fill="#333333"/>
<path d="M39.2251 63.1289H36.7734V65.5805H39.2251V63.1289Z" fill="#333333"/>
<path d="M30.644 9.19336H11.0312V11.645H30.644V9.19336Z" fill="#333333"/>
<path d="M8.58056 9.19336H6.12891V11.645H8.58056V9.19336Z" fill="#333333"/>
<path d="M24.5161 15.3223H6.12891V17.7739H24.5161V15.3223Z" fill="#333333"/>
<path d="M3.67822 15.3223H1.22656V17.7739H3.67822V15.3223Z" fill="#333333"/>
</g>
<defs>
<clipPath id="clip0_47_3325">
<rect width="76" height="76" fill="white"/>
</clipPath>
</defs>
</svg>
