<svg width="75" height="75" viewBox="0 0 75 75" fill="none" xmlns="http://www.w3.org/2000/svg">
<g clip-path="url(#clip0_47_3313)">
<path d="M13.0364 29.0323H7.25781C3.2551 29.0323 0 25.777 0 21.7743C0 18.2204 2.61521 15.2107 6.07379 14.6409C7.7745 11.6048 11.0164 9.67773 14.5159 9.67773C18.5465 9.67773 22.0884 12.1164 23.5374 15.8892L13.0364 29.0323Z" fill="#62BAAF"/>
<path d="M67.7407 67.7422H65.3213H58.0635H55.6441H48.3863H45.967H38.7092H36.2898H29.032H26.6126H19.3546H16.9352H9.67717H7.25781H1.20968H0V71.3712C0 73.3719 1.62831 75.0002 3.62903 75.0002C5.62975 75.0002 7.25806 73.3719 7.25806 71.3712V70.1615H9.67742V71.3712C9.67742 73.3719 11.3057 75.0002 13.3065 75.0002C15.3072 75.0002 16.9355 73.3719 16.9355 71.3712V70.1615H19.3548V71.3712C19.3548 73.3719 20.9832 75.0002 22.9839 75.0002C24.9846 75.0002 26.6129 73.3719 26.6129 71.3712V70.1615H29.0323V71.3712C29.0323 73.3719 30.6606 75.0002 32.6613 75.0002C34.662 75.0002 36.2903 73.3719 36.2903 71.3712V70.1615H38.7097V71.3712C38.7097 73.3719 40.338 75.0002 42.3387 75.0002C44.3394 75.0002 45.9677 73.3719 45.9677 71.3712V70.1615H48.3871V71.3712C48.3871 73.3719 50.0154 75.0002 52.0161 75.0002C54.0168 75.0002 55.6452 73.3719 55.6452 71.3712V70.1615H58.0645V71.3712C58.0645 73.3719 59.6928 75.0002 61.6936 75.0002C63.6943 75.0002 65.3226 73.3719 65.3226 71.3712V70.1615H67.7419V71.3712C67.7419 73.3719 69.3703 75.0002 71.371 75.0002C73.3717 75.0002 75 73.3719 75 71.3712V67.7422H73.7903H67.7407ZM4.83871 71.371C4.83871 72.0375 4.2956 72.5806 3.62903 72.5806C2.96247 72.5806 2.41935 72.0375 2.41935 71.371V70.1613H4.83871V71.371ZM14.5159 71.371C14.5159 72.0375 13.9728 72.5806 13.3062 72.5806C12.6396 72.5806 12.0965 72.0375 12.0965 71.371V70.1613H14.5159C14.5159 70.1615 14.5159 71.371 14.5159 71.371ZM24.193 71.371C24.193 72.0375 23.6499 72.5806 22.9834 72.5806C22.3168 72.5806 21.7737 72.0375 21.7737 71.371V70.1613H24.193V71.371ZM33.8702 71.371C33.8702 72.0375 33.3271 72.5806 32.6605 72.5806C31.994 72.5806 31.4509 72.0375 31.4509 71.371V70.1613H33.8702V71.371ZM43.5476 71.371C43.5476 72.0375 43.0045 72.5806 42.338 72.5806C41.6714 72.5806 41.1283 72.0375 41.1283 71.371V70.1613H43.5476V71.371ZM53.2248 71.371C53.2248 72.0375 52.6817 72.5806 52.0151 72.5806C51.3485 72.5806 50.8054 72.0375 50.8054 71.371V70.1613H53.2248V71.371ZM62.902 71.371C62.902 72.0375 62.3588 72.5806 61.6923 72.5806C61.0257 72.5806 60.4826 72.0375 60.4826 71.371V70.1613H62.902V71.371ZM72.5791 71.371C72.5791 72.0375 72.036 72.5806 71.3694 72.5806C70.7029 72.5806 70.1598 72.0375 70.1598 71.371V70.1613H72.5791V71.371Z" fill="#333333"/>
<path d="M61.6923 45.9678H0V53.2256V58.0643V66.5318H71.3694C73.3702 66.5318 74.9985 64.9035 74.9985 62.9028V59.2737C74.9985 51.9374 69.0288 45.9678 61.6923 45.9678ZM70.7382 53.2258C71.6865 54.64 72.3106 56.2886 72.508 58.0646H65.3216C63.9874 58.0646 62.9022 56.9796 62.9022 55.6452C62.9022 54.3108 63.9872 53.2258 65.3216 53.2258H70.7382ZM2.41935 53.2258H7.25806V58.0646H2.41935V53.2258ZM71.3694 64.1127H2.41935V60.4837H7.25806C8.59222 60.4837 9.67742 59.3987 9.67742 58.0643V53.2256C9.67742 51.8914 8.59247 50.8062 7.25806 50.8062H2.41935V48.3869H61.6923C64.276 48.3869 66.6506 49.2965 68.5195 50.8062H65.3213C62.6528 50.8062 60.4826 52.9764 60.4826 55.6449C60.4826 58.3135 62.6528 60.4837 65.3213 60.4837H72.5791V62.903C72.5791 63.5696 72.036 64.1127 71.3694 64.1127Z" fill="#333333"/>
<path d="M55.6448 50.8066H50.8061C49.4719 50.8066 48.3867 51.8916 48.3867 53.226V58.0647C48.3867 59.3989 49.4717 60.4841 50.8061 60.4841H55.6448C56.9789 60.4841 58.0641 59.3991 58.0641 58.0647V53.226C58.0639 51.8916 56.9789 50.8066 55.6448 50.8066ZM55.6448 58.0645H50.8061V53.2257H55.6448V58.0645Z" fill="#333333"/>
<path d="M43.5471 50.8066H38.7084C37.3743 50.8066 36.2891 51.8916 36.2891 53.226V58.0647C36.2891 59.3989 37.374 60.4841 38.7084 60.4841H43.5471C44.8813 60.4841 45.9665 59.3991 45.9665 58.0647V53.226C45.9662 51.8916 44.8813 50.8066 43.5471 50.8066ZM43.5471 58.0645H38.7084V53.2257H43.5471V58.0645Z" fill="#333333"/>
<path d="M31.4514 50.8066H26.6127C25.2786 50.8066 24.1934 51.8916 24.1934 53.226V58.0647C24.1934 59.3989 25.2783 60.4841 26.6127 60.4841H31.4514C32.7856 60.4841 33.8708 59.3991 33.8708 58.0647V53.226C33.8705 51.8916 32.7856 50.8066 31.4514 50.8066ZM31.4514 58.0645H26.6127V53.2257H31.4514V58.0645Z" fill="#333333"/>
<path d="M19.3557 50.8066H14.517C13.1829 50.8066 12.0977 51.8916 12.0977 53.226V58.0647C12.0977 59.3989 13.1826 60.4841 14.517 60.4841H19.3557C20.6899 60.4841 21.7751 59.3991 21.7751 58.0647V53.226C21.7748 51.8916 20.6899 50.8066 19.3557 50.8066ZM19.3557 58.0645H14.517V53.2257H19.3557V58.0645Z" fill="#333333"/>
<path d="M13.3256 29.3861L16.3328 31.792C18.1135 33.2171 20.5992 33.2158 22.3786 31.792L23.8931 30.581C24.7822 29.8685 26.0244 29.8685 26.9161 30.581L28.4293 31.7907C30.21 33.2158 32.6957 33.2145 34.4751 31.7907L35.9897 30.5798C36.8787 29.8672 38.1209 29.8672 39.0126 30.5798L40.5258 31.7895C41.4162 32.502 42.4831 32.8576 43.5487 32.8576C44.6157 32.8576 45.6813 32.502 46.5717 31.7895L48.0862 30.5785C48.9753 29.866 50.2175 29.866 51.1091 30.5785L52.6223 31.7882C54.4018 33.212 56.8874 33.2133 58.6682 31.7882L61.6766 29.3823L72.8538 43.0998L74.7301 41.5708L54.9838 17.3414L53.1075 18.8704L60.1476 27.5109L57.1562 29.9036C56.2671 30.6161 55.0249 30.6161 54.1333 29.9036L52.62 28.6939C50.8393 27.2688 48.3537 27.2701 46.5742 28.6939L45.0597 29.9048C44.1706 30.6174 42.9284 30.6174 42.0368 29.9048L40.5235 28.6952C38.7428 27.2701 36.2571 27.2713 34.4777 28.6952L32.9632 29.9061C32.0741 30.6186 30.8319 30.6186 29.9403 29.9061L28.427 28.6964C26.6463 27.2713 24.1606 27.2726 22.3812 28.6964L20.8667 29.9074C19.9776 30.6186 18.7354 30.6186 17.8437 29.9074L14.8523 27.5147L27.307 12.2284C28.0013 11.3756 29.027 10.8881 30.1219 10.8881H44.8796C45.8909 10.8881 46.8694 11.3321 47.5662 12.1074L49.3649 10.49C48.2109 9.20543 46.5755 8.46875 44.8796 8.46875H30.1219C28.2954 8.46875 26.5873 9.28037 25.4333 10.6958L0.273438 41.5746L2.14968 43.1036L13.3256 29.3861Z" fill="#333333"/>
<path d="M68.9495 19.3553H54.4336C50.4309 19.3553 47.1758 16.1002 47.1758 12.0975C47.1758 8.54366 49.7923 5.53394 53.2496 4.96416C54.9503 1.92803 58.1909 0.000976562 61.6916 0.000976562C66.2908 0.000976562 70.2295 3.2538 71.1559 7.68708C73.4544 8.58354 74.9978 10.7898 74.9978 13.3072C74.9978 16.6423 72.2846 19.3553 68.9495 19.3553Z" fill="#62BAAF"/>
</g>
<defs>
<clipPath id="clip0_47_3313">
<rect width="75" height="75" fill="white"/>
</clipPath>
</defs>
</svg>
